<svg xmlns="http://www.w3.org/2000/svg" viewBox="0 0 200 200">
  <rect width="200" height="200" fill="#000000"/>
  <g transform="translate(10, 20) scale(0.22)">
    <path fill="#ff2d2d" d="M476.45,40.95l-46.11,153.14-45.34-153.14h-69.94l70.85,214.32h-52.66v-.04h-93.5v-48.47h77.35l-19.98-60.02h-57.37v-45.78h79.05s-13.9-42.43-19.76-60.02h-126.63v214.31h-61.74V40.86H43.39v274.45h182.22v-.06h56.35v.04h123.79s49.96,0,49.96,0l90.3-274.34h-69.55Z"/>
    <path fill="#ff2d2d" d="M752.9,40.86v214.4h-61.74V40.95h-126.63c-5.86,17.58-19.76,60.02-19.76,60.02h79.05v45.78h-57.37l-19.98,60.02h77.35v48.47h-93.49v.04h-36.36l-19.75,60.01h107.38v-.04h56.35v.06h182.22V40.86h-67.27Z"/>
  </g>
</svg>

