<?xml version="1.0" encoding="UTF-8"?><svg id="Layer_1" xmlns="http://www.w3.org/2000/svg" viewBox="0 0 863.56 528.56"><defs><style>.cls-1{fill:#fff;}</style></defs><path class="cls-1" d="M476.45,40.95l-46.11,153.14-45.34-153.14h-69.94l70.85,214.32h-52.66v-.04h-93.5v-48.47h77.35l-19.98-60.02h-57.37v-45.78h79.05s-13.9-42.43-19.76-60.02h-126.63v214.31h-61.74V40.86H43.39v274.45h182.22v-.06h56.35v.04h123.79s49.96,0,49.96,0l90.3-274.34h-69.55Z"/><path class="cls-1" d="M752.9,40.86v214.4h-61.74V40.95h-126.63c-5.86,17.58-19.76,60.02-19.76,60.02h79.05v45.78h-57.37l-19.98,60.02h77.35v48.47h-93.49v.04h-36.36l-19.75,60.01h107.38v-.04h56.35v.06h182.22V40.86h-67.27Z"/><polygon class="cls-1" points="457.37 427.29 465.4 427.29 461.38 392.01 457.37 427.29"/><path class="cls-1" d="M105.91,444.07h7.78c5.19,0,7.78-1.79,7.78-5.38v-46.78h-15.56v52.16Z"/><path class="cls-1" d="M43.39,348.27v139.43h776.78v-139.43H43.39ZM137.91,438.69c0,6.33-2.42,11.42-7.24,15.27-4.53,3.62-10.19,5.43-16.98,5.43h-24.22v-82.79h36.31c3.29,0,6.13,1.09,8.51,3.28,2.41,2.22,3.62,4.89,3.62,8.02v50.79ZM193.98,391.91h-27.4v18.4h22.8v15.36h-22.8v18.4h27.4v15.32h-43.84v-82.79h43.84v15.32ZM249.47,404.53h-16.44v-12.62h-15.56v13.06c0,3.56,2.59,5.33,7.78,5.33,6.78,0,12.44,1.81,16.98,5.43,4.83,3.85,7.24,8.94,7.24,15.27v17.08c0,3.13-1.21,5.81-3.62,8.02-2.38,2.19-5.22,3.28-8.51,3.28h-24.17c-3.29,0-6.13-1.09-8.51-3.28-2.41-2.22-3.62-4.89-3.62-8.02v-16.69h16.44v12.67h15.56v-13.06c0-3.55-2.59-5.33-7.78-5.33-6.79,0-12.45-1.81-16.98-5.43-4.83-3.85-7.24-8.94-7.24-15.27v-17.08c0-3.13,1.21-5.81,3.62-8.02,2.38-2.19,5.22-3.28,8.51-3.28h24.17c3.29,0,6.13,1.09,8.51,3.28,2.41,2.22,3.62,4.89,3.62,8.02v16.64ZM276.63,459.38h-16.44v-82.79h16.44v82.79ZM337.4,404.53h-16.44v-12.62h-15.56v52.16h15.56v-14.19h-7.78v-15.32h24.22v33.52c0,3.13-1.21,5.81-3.62,8.02-2.38,2.19-5.22,3.28-8.51,3.28h-24.17c-3.29,0-6.13-1.09-8.51-3.28-2.42-2.22-3.62-4.89-3.62-8.02v-60.18c0-3.13,1.21-5.81,3.62-8.02,2.38-2.19,5.22-3.28,8.51-3.28h24.17c3.29,0,6.13,1.09,8.51,3.28,2.41,2.22,3.62,4.89,3.62,8.02v16.64ZM401.15,459.38h-22.75l-13.5-53.33v53.33h-16.44v-82.79h22.8l13.46,53.58v-53.58h16.44v82.79ZM471.66,459.38l-3.23-16.78h-14.04l-3.33,16.78h-16.64l16.05-82.79h21.87l16,82.79h-16.68ZM542.8,404.53h-16.44v-12.62h-15.56v52.16h15.56v-14.19h-7.78v-15.32h24.22v33.52c0,3.13-1.21,5.81-3.62,8.02-2.38,2.19-5.22,3.28-8.51,3.28h-24.17c-3.29,0-6.13-1.09-8.51-3.28-2.42-2.22-3.62-4.89-3.62-8.02v-60.18c0-3.13,1.21-5.81,3.62-8.02,2.38-2.19,5.22-3.28,8.51-3.28h24.17c3.3,0,6.13,1.09,8.51,3.28,2.41,2.22,3.62,4.89,3.62,8.02v16.64ZM597.7,391.91h-27.4v18.4h22.8v15.36h-22.8v18.4h27.4v15.32h-43.84v-82.79h43.84v15.32ZM658.81,459.38h-22.75l-13.5-53.33v53.33h-16.44v-82.79h22.8l13.46,53.58v-53.58h16.44v82.79ZM719.58,404.53h-16.44v-12.62h-15.56v52.16h15.56v-12.67h16.44v16.69c0,3.13-1.21,5.81-3.62,8.02-2.38,2.19-5.22,3.28-8.51,3.28h-24.17c-3.29,0-6.13-1.09-8.51-3.28-2.42-2.22-3.62-4.89-3.62-8.02v-60.18c0-3.13,1.21-5.81,3.62-8.02,2.38-2.19,5.22-3.28,8.51-3.28h24.17c3.29,0,6.13,1.09,8.51,3.28,2.41,2.22,3.62,4.89,3.62,8.02v16.64ZM756.87,431.05v28.33h-16.44v-28.28l-17.27-54.51h16.78c2.41,8.06,5.3,21.27,8.66,39.63,3.42-18.36,6.33-31.58,8.71-39.63h16.78l-17.22,54.46Z"/></svg>