<?xml version="1.0" encoding="UTF-8"?><svg id="Layer_1" xmlns="http://www.w3.org/2000/svg" viewBox="0 0 1080 1080"><defs><style>.cls-1{fill:#fff;}</style></defs><path class="cls-1" d="M241.09,545.28c0-39.12,26.4-62.46,61.99-62.46s62.93,25.22,62.93,62.7c0,40.54-30.17,59.87-56.57,59.87-13.91,0-25.69-5.42-33-15.79v48.91c0,7.48-6.07,13.55-13.55,13.55h-21.81v-106.77ZM330.19,544.1c0-16.73-10.84-28.29-26.87-28.29s-26.87,11.55-26.87,28.29,10.84,28.28,26.87,28.28,26.87-11.55,26.87-28.28Z"/><path class="cls-1" d="M379.69,544.1c0-35.36,25.93-61.28,62.7-61.28s62.7,25.93,62.7,61.28-25.93,61.28-62.7,61.28-62.7-25.93-62.7-61.28ZM469.26,544.1c0-16.73-10.84-28.29-26.87-28.29s-26.87,11.55-26.87,28.29,10.84,28.28,26.87,28.28,26.87-11.55,26.87-28.28Z"/><path class="cls-1" d="M518.76,544.1c0-35.36,25.93-61.28,62.7-61.28,32.29,0,55.86,20.03,60.81,48.79h-35.83c-4.01-9.66-13.2-15.79-24.98-15.79-16.03,0-26.87,11.55-26.87,28.29s10.84,28.28,26.87,28.28c11.79,0,20.98-6.13,24.98-15.79h35.83c-4.95,28.76-28.52,48.79-60.81,48.79-36.77,0-62.7-25.93-62.7-61.28Z"/><path class="cls-1" d="M655.47,542.69c0-40.54,30.17-59.87,56.57-59.87,13.91,0,25.69,5.42,33,15.79v-46.33c0-9.56,7.75-17.31,17.31-17.31h18.04v107.95c0,39.13-26.4,62.46-61.99,62.46s-62.93-25.22-62.93-62.7ZM745.03,544.1c0-16.73-10.84-28.29-26.87-28.29s-26.87,11.55-26.87,28.29,10.84,28.28,26.87,28.28,26.87-11.55,26.87-28.28Z"/><path class="cls-1" d="M798.77,544.1c0-35.36,25.93-61.28,62.7-61.28s62.7,25.93,62.7,61.28-25.93,61.28-62.7,61.28-62.7-25.93-62.7-61.28ZM888.34,544.1c0-16.73-10.84-28.29-26.87-28.29s-26.87,11.55-26.87,28.29,10.84,28.28,26.87,28.28,26.87-11.55,26.87-28.28Z"/><path class="cls-1" d="M937.84,544.1c0-35.36,25.93-61.28,62.7-61.28,32.29,0,55.86,20.03,60.81,48.79h-35.83c-4.01-9.66-13.2-15.79-24.98-15.79-16.03,0-26.87,11.55-26.87,28.29s10.84,28.28,26.87,28.28c11.79,0,20.98-6.13,24.98-15.79h35.83c-4.95,28.76-28.52,48.79-60.81,48.79-36.77,0-62.7-25.93-62.7-61.28Z"/><path class="cls-1" d="M93.44,448.78c0-.57-.24-1.11-.66-1.49l-8.8-8c-3.09-2.8-7.15-4.29-11.73-4.29l-38.15-.03h-.02c-4.25,0-8.14,1.55-10.95,4.36-2.9,2.9-4.49,6.95-4.48,11.41l.08,61.12-.08,78.64c0,9.2,4.98,17.98,13.68,24.09,1.25.87,2.45,1.69,3.62,2.48,2.34,1.58,4.55,3.07,6.62,4.75.87.71,1.65,1.22,2.28,1.63.24.15.48.31.74.5l32.09,22.3c4.89,3.4,10.31,5.31,15.76,5.72v-203.19Z"/><path class="cls-1" d="M95.66,652.06s.01,0,.02,0c0,0,.01,0,.02,0h-.03Z"/><path class="cls-1" d="M176.07,497.73c0-.16,0-.32-.01-.51v-23.3c.01-3.74-1.35-7.32-3.82-10.07-2.71-3.02-6.42-4.68-10.44-4.69l-55.34-.1c-.43,0-.92,0-2.4-1.34l-2.99-2.72v197.05c3.68-.72,7.26-2.12,10.57-4.26l22.69-14.63c.2-.13.36-.23.52-.33.38-.24.75-.46,1.26-.81l27.61-18.52c7.61-5.11,12.34-13.98,12.34-23.13v-92.64Z"/></svg>