<?xml version="1.0" encoding="UTF-8"?><svg id="Layer_1" xmlns="http://www.w3.org/2000/svg" viewBox="0 0 1080 1080"><defs><style>.cls-1{fill:#fff;}</style></defs><path class="cls-1" d="M336.63,409.19c-9.27,0-18.19,1.5-26.52,4.27-25.31,8.37-45.35,28.42-53.73,53.73-2.78,8.34-4.27,17.26-4.27,26.52v177.1h498.58c8.87,0,17.4-1.5,25.34-4.27,22.22-7.75,39.85-25.36,47.6-47.58,2.76-7.95,4.27-16.47,4.27-25.35v-184.42h-491.27ZM437.87,600.3l-24.04-35.18h-46.36l16.26-24.2h15.11l-18.24-26.44-58,85.83h-32.39l75.2-110.37c3.7-5.54,9.34-8.73,15.47-8.73s11.86,3.21,15.51,8.81l74.11,110.28h-32.62,0ZM511.8,564.64v35.66h-27.35v-73.79h27.35v13.74h55.67c12.24,0,32.78-2.2,32.78-16.92,0-8.1-3.76-17.4-32.95-17.4h-82.9l13.46-24.72h75.66c33.34,0,54.06,16.2,54.06,42.3s-20.72,41.14-54.06,41.14h-61.73ZM753.78,600.3l-51.2-44.55-51.51,44.55h-37.07l70.89-61.12-66.54-57.97h39.29l46.59,41.08,46.92-41.08h37.92l-66.64,57.36,71.14,61.74h-39.79,0Z"/></svg>