<?xml version="1.0" encoding="UTF-8"?><svg id="Layer_1" xmlns="http://www.w3.org/2000/svg" viewBox="0 0 1080 1080"><defs><style>.cls-1{fill:#fff;}</style></defs><rect class="cls-1" x="320.11" y="600.46" width="278.4" height="4.61" transform="translate(918.62 1205.52) rotate(180)"/><rect class="cls-1" x="320.11" y="595.85" width="278.4" height="4.61"/><rect class="cls-1" x="320.11" y="591.24" width="278.4" height="4.61"/><rect class="cls-1" x="320.11" y="586.64" width="278.4" height="4.61" transform="translate(918.62 1177.88) rotate(180)"/><path class="cls-1" d="M630.37,594.98h7.51c0,.77-.03,1.48-.1,2.11-.06.63-.19,1.22-.39,1.76-.27.76-.64,1.43-1.1,2.02-.46.59-1,1.08-1.63,1.47-.62.39-1.31.69-2.06.9-.75.2-1.53.31-2.35.31-1.13,0-2.16-.19-3.1-.56-.93-.37-1.74-.9-2.4-1.57s-1.19-1.49-1.56-2.44c-.37-.95-.56-1.99-.56-3.14s.18-2.17.55-3.12c.37-.95.89-1.76,1.56-2.43.68-.67,1.49-1.19,2.44-1.57.95-.37,2.01-.56,3.18-.56,1.52,0,2.85.33,4,.98,1.14.66,2.05,1.68,2.72,3.05l-3.59,1.49c-.33-.8-.77-1.37-1.3-1.72s-1.14-.52-1.82-.52c-.57,0-1.08.11-1.54.32-.46.21-.86.51-1.19.91-.33.39-.59.87-.77,1.42s-.28,1.17-.28,1.86c0,.62.08,1.19.24,1.72.16.53.4.98.72,1.37.32.39.72.68,1.2.9s1.03.32,1.66.32c.37,0,.73-.04,1.08-.13.35-.08.66-.22.94-.41.27-.19.5-.43.68-.72.18-.29.3-.66.37-1.08h-3.11v-2.94Z"/><path class="cls-1" d="M660.08,603.14h-4.71l-3.61-5.6v5.6h-3.78v-14.57h5.89c.81,0,1.52.12,2.12.36.6.24,1.1.56,1.49.98s.69.89.89,1.43c.2.54.3,1.12.3,1.74,0,1.11-.27,2.01-.8,2.7-.54.69-1.32,1.16-2.36,1.4l4.57,5.97ZM651.77,595.08h.71c.75,0,1.32-.16,1.72-.46.4-.31.6-.75.6-1.33s-.2-1.02-.6-1.33c-.4-.31-.97-.46-1.72-.46h-.71v3.6Z"/><path class="cls-1" d="M668.46,595.85c0-1.08.2-2.09.6-3.02.4-.93.95-1.75,1.66-2.45.71-.7,1.55-1.24,2.54-1.63.98-.39,2.07-.59,3.25-.59s2.25.2,3.24.59c.99.39,1.84.94,2.56,1.63.71.7,1.27,1.51,1.67,2.45.4.94.6,1.94.6,3.02s-.2,2.09-.6,3.03c-.4.93-.95,1.75-1.67,2.45-.71.69-1.56,1.24-2.56,1.63-.99.39-2.07.59-3.24.59s-2.27-.2-3.25-.59c-.98-.39-1.83-.94-2.54-1.63-.71-.7-1.26-1.51-1.66-2.45-.4-.94-.6-1.94-.6-3.03ZM672.41,595.85c0,.58.11,1.12.33,1.6.22.49.51.92.89,1.27.37.36.81.64,1.3.84s1.02.3,1.57.3,1.08-.1,1.57-.3.93-.48,1.31-.84c.38-.36.68-.78.9-1.27s.33-1.02.33-1.6-.11-1.11-.33-1.6-.52-.92-.9-1.28c-.38-.36-.82-.64-1.31-.84s-1.02-.3-1.57-.3-1.08.1-1.57.3-.93.48-1.3.84c-.37.36-.67.79-.89,1.28-.22.49-.33,1.02-.33,1.6Z"/><path class="cls-1" d="M698.46,588.57v7.92c0,.43.02.86.05,1.31.03.44.13.85.29,1.21.16.36.41.65.76.88s.84.34,1.47.34,1.12-.11,1.46-.34.6-.52.76-.88c.17-.36.27-.76.3-1.21.03-.45.05-.88.05-1.31v-7.92h3.76v8.44c0,2.27-.52,3.92-1.55,4.97-1.03,1.04-2.63,1.57-4.77,1.57s-3.74-.52-4.79-1.57-1.56-2.7-1.56-4.97v-8.44h3.78Z"/><path class="cls-1" d="M721.9,603.14h-3.78v-14.57h6.02c1.63,0,2.88.43,3.75,1.27.87.85,1.3,2.05,1.3,3.6s-.44,2.74-1.3,3.59c-.87.85-2.12,1.28-3.75,1.28h-2.24v4.83ZM721.9,595.25h1.26c1.39,0,2.09-.61,2.09-1.82s-.7-1.82-2.09-1.82h-1.26v3.63Z"/><path class="cls-1" d="M752.55,603.14l2.47-14.57h3.74l2.92,7.77,2.89-7.77h3.75l2.47,14.57h-3.76l-1.26-8.39-3.44,8.39h-1.51l-3.26-8.39-1.26,8.39h-3.76Z"/><path class="cls-1" d="M789.81,600.61h-5.4l-.87,2.53h-4.03l5.54-14.57h4.13l5.54,14.57h-4.03l-.87-2.53ZM788.81,597.73l-1.7-4.85-1.7,4.85h3.4Z"/><path class="cls-1" d="M807.87,588.57v14.57h-3.78v-14.57h3.78Z"/><path class="cls-1" d="M818.64,603.14v-14.57h3.78l6.99,8.91v-8.91h3.76v14.57h-3.76l-6.99-8.91v8.91h-3.78Z"/><path class="cls-1" d="M849.45,591.77v11.36h-3.78v-11.36h-3.11v-3.21h10v3.21h-3.11Z"/><path class="cls-1" d="M870.23,591.77h-4.5v2.43h4.25v3.21h-4.25v2.51h4.5v3.21h-8.28v-14.57h8.28v3.21Z"/><path class="cls-1" d="M880.67,603.14v-14.57h3.78l6.99,8.91v-8.91h3.76v14.57h-3.76l-6.99-8.91v8.91h-3.78Z"/><path class="cls-1" d="M914.92,600.61h-5.4l-.87,2.53h-4.03l5.54-14.57h4.13l5.54,14.57h-4.03l-.87-2.53ZM913.92,597.73l-1.7-4.85-1.7,4.85h3.4Z"/><path class="cls-1" d="M929.2,603.14v-14.57h3.78l6.99,8.91v-8.91h3.76v14.57h-3.76l-6.99-8.91v8.91h-3.78Z"/><path class="cls-1" d="M965.17,593.44c-.87-1.07-1.95-1.6-3.24-1.6-.57,0-1.09.1-1.57.31s-.9.49-1.24.84-.62.78-.82,1.27c-.2.49-.3,1.02-.3,1.59s.1,1.11.3,1.6c.2.49.47.92.83,1.28.35.36.77.64,1.25.85s.99.31,1.54.31c1.21,0,2.3-.52,3.26-1.55v4.48l-.39.14c-.58.21-1.12.36-1.62.45-.5.1-1,.14-1.49.14-1,0-1.96-.19-2.88-.57-.92-.38-1.73-.92-2.43-1.6-.7-.69-1.26-1.51-1.69-2.45s-.64-1.98-.64-3.1.21-2.15.63-3.08c.42-.94.98-1.74,1.68-2.42s1.51-1.21,2.44-1.59c.93-.38,1.9-.57,2.91-.57.58,0,1.15.06,1.71.18.56.12,1.15.31,1.76.57v4.52Z"/><path class="cls-1" d="M983.56,591.77h-4.5v2.43h4.25v3.21h-4.25v2.51h4.5v3.21h-8.28v-14.57h8.28v3.21Z"/><path class="cls-1" d="M423.45,521.9c3.53-.85,7.53,2.28,7.35,5.99.01,9.43-.06,18.86.02,28.29-.09,2.84,3.09,4.08,5.46,4.16,20.48,0,40.96,0,61.44,0,2.06.14,4.64.59,5.55,2.73.59,1.61,1.78,3.39.98,5.14-.82,3.15-4.01,5.3-7.22,5.24-17.71.02-35.42,0-53.13,0-4.75-.06-9.59.42-14.2-.97-6.47-1.39-11.43-7.57-11.34-14.2.07-10.78-.09-21.56.08-32.33.75-2.03,2.9-3.54,5.02-4.06Z"/><path class="cls-1" d="M512.2,527.24c.32-4.5,6.24-7.08,9.78-4.31.9.76,1.72,1.61,2.59,2.43.13,9.8-.08,19.62.08,29.43.04,2.7,1.87,5.48,4.79,5.53,20.93.06,41.86.02,62.78.01,2.73-.18,5.02,2.04,6.02,4.4.82,2.4-.4,4.86-1.72,6.82-2.04,1.42-4.59,2.04-7.06,1.93-20.01-.08-40.03.05-60.04-.06-3.17-.51-6.57-.61-9.4-2.28-5.25-2.86-8.14-9.06-7.88-14.92.08-9.66-.03-19.32.05-28.97Z"/><path class="cls-1" d="M703.95,528.59c-.05-3.5,2.8-6.56,6.25-6.91,2.61,0,5.59,1.32,6.33,4.03,1.09,2.84.14,5.93.74,8.84,2.88,4.08,7.48,7.03,12.48,7.61,4.48.6,9.03.06,13.54.28,3.02.26,5.92-.88,8.94-.75,4.84.07,9.68-.03,14.51.06,4.36.52,8.62,1.88,12.41,4.13-.01-6.22,0-12.44-.01-18.66-.36-4.22,5.14-6.59,8.55-5.09,2.15,1.06,4.04,3.26,3.9,5.78-.05,13.56.03,27.13-.03,40.7-.1,3.51-3.81,5.12-6.81,5.48-2.35-.3-3.99-1.98-5.57-3.58-.16-3.3.19-6.62-.17-9.91-3.12-3.44-7.28-7.06-12.25-6.49-12.43.06-24.86.04-37.28.01-4.33-.57-8.64-1.93-12.31-4.34-.21,6.04.01,12.09-.11,18.13-.39,2.34-1.61,4.98-4.18,5.52-2.34,1.32-4.98.11-7.03-1.18-2.21-3.05-1.98-6.95-1.9-10.53.01-11.04,0-22.09,0-33.13Z"/><path class="cls-1" d="M336.53,523.33c.81-.19,1.63-.28,2.48-.26,20.01.03,40.03,0,60.04.01,2.67.07,5.37-.21,8.02.15,1.05.84,2.02,1.8,2.86,2.86.26,2.36.61,5.03-.72,7.15-1.03,1.47-2.81,2.41-4.62,2.28-20.95-.04-41.89.01-62.84-.03-2.85-.15-5.64,1.45-7.32,3.7-2.86,4.82-3.11,11.04-.72,16.11,1.35,3.06,4.7,5.17,8.04,5.04,20.72-.05,41.43,0,62.15-.03,2.72.12,6.16,1.7,6.18,4.87-.06,1.92.62,4.37-1.15,5.72-1.54,1.91-4.04,2.62-6.41,2.57-19.32-.02-38.65-.03-57.98,0-3.13.12-6.2-.51-9.24-1.15-7.39-2.26-13.18-8.92-14.52-16.51-1.18-7.94-1.2-16.65,3.07-23.77,3.03-4.27,7.49-7.6,12.67-8.72Z"/><path class="cls-1" d="M623.5,523.32c.81-.17,1.64-.26,2.49-.26,20.7.02,41.4.03,62.11,0,2.38.08,5.11-.5,7.09,1.21,1.9,1.51,2.1,4.13,1.89,6.37-.13,2.76-2.75,5.1-5.5,4.88-20.02-.04-40.03,0-60.04-.03-2.42.03-5.05-.34-7.15,1.13-4.14,2.02-5.39,7.05-5.3,11.29-.2,3.84,1.17,7.88,3.99,10.55,1.43,1.52,3.68,1.86,5.68,1.88,20.72-.03,41.43.01,62.14-.02,2.59-.21,4.52,1.9,6.04,3.7.36,2.42.52,5.33-1.36,7.2-1.61,1.99-4.37,2.28-6.75,2.25-20.02-.05-40.05,0-60.07-.02-5.35-.35-10.89-2.05-14.75-5.94-5.86-5.46-7.52-13.98-7.29-21.67.81-4.71,1.07-9.88,4.09-13.82,2.64-4.62,7.6-7.6,12.71-8.71Z"/><path class="cls-1" d="M815.98,523.34c4.93-.61,9.95-.05,14.92-.26,17.93.04,35.86-.04,53.78.03,6.67.3,6.65,12.06.01,12.39-21.16.02-42.32.02-63.49,0-3.34-.16-6.7,1.99-8.04,5.04-2.39,5.06-2.16,11.3.72,16.11,1.65,2.27,4.46,3.87,7.31,3.71,20.72-.05,41.43,0,62.14-.03,1.83-.08,3.49.93,4.96,1.92,1.83,2.04,1.26,5.02,1.1,7.52-1.58,2.17-3.99,3.77-6.76,3.7-20.47-.02-40.94.05-61.41-.03-8.42-.19-16.76-5.33-19.74-13.36-1.61-3.66-1.56-7.68-2.27-11.55-.28-1.63.29-3.22.48-4.82.3-5.84,2.66-11.8,7.19-15.65,2.29-2.71,5.81-3.74,9.09-4.72Z"/><path class="cls-1" d="M896.43,535.48c.37-6,5.26-11.2,11.07-12.38,19.76-.06,39.54.01,59.31-.03,3.84-.18,7.97.3,11.17,2.63,2.72,2.3,5.59,5.28,5.47,9.11.04,2.15.62,4.88-1.26,6.44-1.66,1.72-4.17,2.06-6.38,2.54-1.59-.53-3.2-1.54-3.69-3.23-.57-1.75-1.43-3.66-3.28-4.32-2.17-.95-4.57-.74-6.86-.74-17.47.06-34.93-.04-52.4.05-.03,2.04-.03,4.08.02,6.11,14.69.14,29.38-.02,44.07.08,9.22,1.98,16.69,8.29,23.7,14.26,2.21,2.21,4.01,4.8,5.78,7.37.46,1.89.26,3.9.17,5.84-.66,3.06-3.75,4.98-6.75,4.95-3.72-1.13-5.03-5.19-7.52-7.77-4.85-5.08-10.7-9.41-17.47-11.51-3.06-1.24-6.41-.63-9.6-.75-10.8.03-21.6-.06-32.4.03-.1,4.36.02,8.73,0,13.09.03,1.83-.96,3.49-1.92,4.97-1.43.99-3.2,1.69-4.93,1.83-1.9-.59-4.37-1-5.18-3.1-.61-1.15-1.22-2.37-1.12-3.7.03-10.59,0-21.19.01-31.77Z"/><path class="cls-1" d="M342.72,541.91c1.03-.28,2.12-.2,3.19-.23,18.14.11,36.29-.06,54.43.08,6.12,1.15,5.75,12-.61,12.36-18.39.06-36.8,0-55.19.03-1.85.18-3.3-1.19-4.6-2.29-1.92-3.24-1.27-8.69,2.79-9.94Z"/><path class="cls-1" d="M629.69,541.9c.81-.17,1.65-.24,2.5-.21,17.96.06,35.91.04,53.86,0,2.35-.16,4.58,1.52,5.31,3.73,1.15,3.61-1.08,8.82-5.3,8.75-18.4-.04-36.8.02-55.19-.03-6.13-.32-6.79-10.5-1.17-12.22Z"/><path class="cls-1" d="M822.17,541.91c17.83-.48,35.72-.01,53.58-.21,2.15.03,4.62-.35,6.38,1.22,1.78,1.3,2.08,3.64,1.93,5.69.21,3-2.54,5.76-5.54,5.55-18.4-.04-36.8.02-55.19-.03-6.13-.32-6.78-10.53-1.17-12.22Z"/><path class="cls-1" d="M157.16,524.13c-.03-2.24,1.9-4.17,4.15-4.13,2.44-.04,4.93-.28,7.33.19,2.03.48,3.13,2.61,3.01,4.59.03,5.04-.06,10.09.04,15.14,11.69.06,23.39.1,35.07-.01,12.91-2.56,24.19-9.69,35.23-16.49,2.49-1.53,5.26-4.39,8.41-2.91,2.95.68,3.55,4.37,3.3,6.93-1.37,4.4-5.3,7.26-8.84,9.91-5.18,4.09-11.03,7.2-16.65,10.62,2.49,1.23,4.85,2.72,7.3,4.04,5.84,3.92,12.15,7.47,16.57,13.08,1.69,2.24,2.44,5.37.77,7.84-.9,2.61-4.25,2.63-6.47,2.04-7.21-4.33-14.22-9.09-21.85-12.67-5.59-2.84-11.44-5.54-17.7-6.42-11.71,0-23.43-.06-35.14.03-.12,4.82,0,9.64-.03,14.46.19,2.75-2.12,5.35-4.86,5.49-1.8.08-3.61.12-5.41-.07-1.75-.33-2.95-1.73-4.21-2.85-.04-16.27-.03-32.54,0-48.81Z"/><circle class="cls-1" cx="202.11" cy="636.04" r="11.61"/><circle class="cls-1" cx="235.84" cy="629.33" r="11.61"/><circle class="cls-1" cx="264.43" cy="610.23" r="11.61"/><circle class="cls-1" cx="283.53" cy="581.64" r="11.61"/><circle class="cls-1" cx="290.24" cy="547.91" r="11.61"/><circle class="cls-1" cx="283.53" cy="514.18" r="11.61"/><circle class="cls-1" cx="264.43" cy="485.59" r="11.61"/><circle class="cls-1" cx="235.84" cy="466.49" r="11.61"/><circle class="cls-1" cx="202.11" cy="459.78" r="11.61"/><circle class="cls-1" cx="168.38" cy="466.49" r="11.61"/><circle class="cls-1" cx="139.79" cy="485.59" r="11.61"/><circle class="cls-1" cx="120.69" cy="514.18" r="11.61"/><circle class="cls-1" cx="113.98" cy="547.91" r="11.61"/><circle class="cls-1" cx="120.69" cy="581.64" r="11.61"/><circle class="cls-1" cx="139.79" cy="610.23" r="11.61"/><circle class="cls-1" cx="168.38" cy="629.33" r="11.61"/><path class="cls-1" d="M974.32,506.65v4.81h-1.72v-4.81h-1.31v-1.48h4.35v1.48h-1.31ZM975.96,511.45l1.05-6.28h1.69l1.2,3.21,1.26-3.21h1.71l.93,6.28h-1.72l-.43-3.4-1.4,3.4h-.76l-1.33-3.4-.5,3.4h-1.71Z"/></svg>