<?xml version="1.0" encoding="UTF-8"?><svg id="Layer_1" xmlns="http://www.w3.org/2000/svg" viewBox="0 0 1080 1080"><defs><style>.cls-1{fill:#fff;}</style></defs><path class="cls-1" d="M135.6,459.08v161.83c27.46-16.48,45.86-46.55,45.86-80.92h0c0-34.36-18.38-64.44-45.86-80.92Z"/><path class="cls-1" d="M88.03,548.31v-102.61H19.88s68.15,102.61,68.15,102.61Z"/><path class="cls-1" d="M16.79,527.03v107.27h71.24l-71.24-107.27Z"/><path class="cls-1" d="M294.68,581.58l-39.28-40.22c-1.02-.94-2.14-2.05-3.26-2.99v42.17h-11.58v-68.21h.37l39.2,40.12,3.26,3.17v-42.27h11.58v68.21h-.28Z"/><path class="cls-1" d="M338.24,512.35h.37l31.81,68.21h-12.31l-5.97-13.35h-27.44l-5.97,13.35h-12.31l31.81-68.21h0ZM348.32,558.44c-3.83-8.59-7-16.14-9.79-23.79-2.89,7-6.35,15.59-9.99,23.79h19.78Z"/><path class="cls-1" d="M405.14,562.35c0,13.07-5.97,19.41-18.1,19.41-4.01,0-7.37-.84-9.06-1.87v-10.08c1.69.94,4.58,1.77,7.47,1.77,5.13,0,7.94-2.81,7.94-8.12v-50.11h11.76v48.99h-.01Z"/><path class="cls-1" d="M424.91,580.55v-67.18h11.76v67.18h-11.76Z"/><path class="cls-1" d="M503.86,561.24c0,12.13-9.71,19.32-23.98,19.32h-23.42v-67.18h21.27c13.72,0,23.51,6.63,23.51,18.66,0,6.07-3.54,11.01-8.49,13.25,6.25,2.14,11.11,8.49,11.11,15.96ZM477.91,541.92c1.96,0,3.93-.1,5.7-.28,3.46-1.12,5.7-4.19,5.7-8.77,0-6.25-4.19-10.08-10.83-10.08h-10.73v19.13h10.17-.01ZM467.74,571.13h12.6c6.72,0,11.48-4.01,11.48-10.46s-4.29-10.36-10.17-10.36h-13.9v20.8h0Z"/><path class="cls-1" d="M540.14,580.55v-67.18h20.43c22.21,0,36.67,13.72,36.67,33.6s-14.27,33.6-36.39,33.6h-20.72ZM551.9,523.26v47.4h8.87c15.02,0,24.63-9.79,24.63-23.71s-9.61-23.71-24.91-23.71h-8.59Z"/><path class="cls-1" d="M632.05,512.35h.37l31.81,68.21h-12.31l-5.97-13.35h-27.44l-5.97,13.35h-12.31l31.81-68.21h0ZM642.13,558.44c-3.83-8.59-7-16.14-9.79-23.79-2.89,7-6.35,15.59-9.99,23.79h19.78Z"/><path class="cls-1" d="M724.89,556.57c0,15.49-10.08,25.2-27.07,25.2s-26.97-9.71-26.97-25.2v-43.21h11.66v42.17c0,9.71,5.7,15.39,15.3,15.39s15.3-5.7,15.3-15.39v-42.17h11.76v43.21Z"/><path class="cls-1" d="M743.54,580.55v-67.18h11.76v57.29h27.34v9.89h-39.1,0Z"/><path class="cls-1" d="M819.68,512.35h.37l31.81,68.21h-12.31l-5.97-13.35h-27.44l-5.97,13.35h-12.31s31.81-68.21,31.81-68.21ZM829.75,558.44c-3.83-8.59-7-16.14-9.79-23.79-2.89,7-6.35,15.59-9.99,23.79h19.78,0Z"/><path class="cls-1" d="M880.23,523.26v57.29h-11.76v-57.29h-19.6v-9.89h50.94v9.89h-19.6.01Z"/><path class="cls-1" d="M941.62,523.26h-31.73v-9.89h49.54l-34.25,57.29h33.78v9.89h-51.7l34.34-57.29h.01Z"/><path class="cls-1" d="M997.88,512.35h.37l31.81,68.21h-12.31l-5.97-13.35h-27.44l-5.97,13.35h-12.31s31.81-68.21,31.81-68.21ZM1007.95,558.44c-3.83-8.59-7-16.14-9.79-23.79-2.89,7-6.35,15.59-9.99,23.79h19.78,0Z"/><path class="cls-1" d="M1041.64,580.55v-67.18h11.76v67.18h-11.76Z"/></svg>