<?xml version="1.0" encoding="UTF-8"?><svg id="Layer_1" xmlns="http://www.w3.org/2000/svg" viewBox="0 0 1080 1080"><defs><style>.cls-1{fill:#fff;}</style></defs><g id="Gruppe_1"><path id="Pfad_1" class="cls-1" d="M172.06,625.97v17.11c0,4.86,2.65,4.46,8.13,4.23v3.28c-7.62,1.13-11.85-.74-11.85-7.51v-17.11h-5.92v-3.61h5.92v-6.78l3.73-1.13v7.9h8.12v3.61h-8.13Z"/><path id="Pfad_2" class="cls-1" d="M226.56,633.25v17.33h-3.73v-17.33c.48-3.91-2.3-7.46-6.21-7.94-.49-.06-.99-.07-1.48-.03-4.97,0-9.15,2.94-9.15,10.51v14.8h-3.72v-39.52h3.73v15.7c1.98-3.32,5.63-5.28,9.49-5.08,6.89,0,11.08,4.52,11.08,11.58"/><path id="Pfad_3" class="cls-1" d="M251.81,634.72h21.06c-.35-5.34-4.81-9.48-10.16-9.43-5.55-.21-10.31,3.91-10.9,9.43M276.72,636.59c0,.58-.05,1.17-.11,1.75h-24.79c.68,5.6,5.61,9.69,11.24,9.32,3.68.2,7.18-1.64,9.09-4.8l3.27,1.92c-2.7,4.21-7.42,6.68-12.42,6.49-8.17.61-15.28-5.51-15.89-13.68-.61-8.17,5.51-15.28,13.68-15.89,8.17-.61,15.28,5.51,15.89,13.68.03.4.04.81.04,1.21"/><path id="Pfad_4" class="cls-1" d="M326.82,636.47c-.16-8.01,6.2-14.64,14.22-14.8.21,0,.42,0,.64,0,5.22-.17,10.05,2.72,12.36,7.39l-3.05,1.75c-1.75-3.51-5.39-5.68-9.32-5.53-6.18,0-11.18,5.01-11.18,11.18s5.01,11.18,11.18,11.18c3.96.06,7.62-2.07,9.53-5.54l3.11,1.8c-2.51,4.62-7.39,7.46-12.65,7.34-8.01.19-14.66-6.14-14.85-14.15,0-.21,0-.43,0-.64"/><path id="Pfad_5" class="cls-1" d="M375.56,622.36h3.73v28.23h-3.73v-28.23ZM374.71,613.66c0-1.5,1.22-2.71,2.71-2.71s2.71,1.22,2.71,2.71c0,1.49-1.21,2.71-2.71,2.71-1.5,0-2.71-1.21-2.71-2.71"/><path id="Pfad_6" class="cls-1" d="M409.9,625.97v17.11c0,4.86,2.65,4.46,8.13,4.23v3.28c-7.62,1.13-11.85-.74-11.85-7.51v-17.11h-5.92v-3.61h5.92v-6.78l3.73-1.13v7.9h8.13v3.61h-8.14Z"/><path id="Pfad_7" class="cls-1" d="M464.96,622.36l-12.09,30.83c-2.15,5.42-6.33,9.09-11.41,8.7v-3.5c3.67.39,6.21-2.2,7.73-5.87l.73-1.75-12.65-28.41h3.95l10.61,23.66,9.15-23.66h3.97Z"/><path id="Pfad_8" class="cls-1" d="M539.63,633.25v17.33h-3.73v-17.33c.48-3.91-2.3-7.46-6.21-7.94-.49-.06-.99-.07-1.48-.03-4.97,0-9.15,2.94-9.15,10.51v14.8h-3.72v-39.52h3.73v15.7c1.98-3.32,5.63-5.28,9.49-5.08,6.89,0,11.08,4.52,11.08,11.58"/><path id="Pfad_9" class="cls-1" d="M587.02,636.47c-.03-6.15-5.04-11.1-11.18-11.07-6.15.03-11.1,5.04-11.07,11.18.03,6.12,5,11.07,11.13,11.07,6.09.06,11.07-4.82,11.13-10.91,0-.09,0-.18,0-.27M561.04,636.47c-.03-8.2,6.59-14.88,14.79-14.91,8.2-.03,14.88,6.59,14.91,14.79.03,8.2-6.59,14.88-14.79,14.91-.02,0-.04,0-.06,0-8.11.09-14.76-6.4-14.85-14.51,0-.09,0-.19,0-.28"/><path id="Pfad_10" class="cls-1" d="M631.69,643.14c0,4.8-4.18,8.13-10.22,8.13-4.64.34-8.99-2.26-10.9-6.49l3.16-1.86c1.28,3.08,4.4,4.99,7.73,4.74,3.33,0,6.49-1.19,6.49-4.52,0-7-16.48-2.99-16.48-13.39,0-4.52,4.01-8.07,9.66-8.07,4.15-.21,8.02,2.05,9.88,5.76l-3.09,1.8c-1.22-2.6-3.92-4.17-6.78-3.95-2.94,0-5.92,1.41-5.92,4.46,0,7,16.48,2.99,16.48,13.39"/><path id="Pfad_11" class="cls-1" d="M659.48,625.97v17.11c0,4.86,2.65,4.46,8.13,4.23v3.28c-7.62,1.13-11.85-.74-11.85-7.51v-17.11h-5.92v-3.61h5.92v-6.78l3.73-1.13v7.9h8.13v3.61h-8.14Z"/><path id="Pfad_12" class="cls-1" d="M690.15,634.72h21.06c-.35-5.34-4.81-9.48-10.16-9.43-5.55-.22-10.32,3.91-10.9,9.43M715.05,636.59c0,.56-.06,1.19-.11,1.75h-24.79c.68,5.6,5.61,9.69,11.24,9.32,3.68.2,7.18-1.64,9.09-4.8l3.28,1.92c-2.7,4.21-7.42,6.68-12.42,6.49-8.17.61-15.28-5.51-15.89-13.68-.61-8.17,5.51-15.28,13.68-15.89,8.17-.61,15.28,5.51,15.89,13.68.03.4.04.81.04,1.21"/><rect id="Rechteck_1" class="cls-1" x="736.86" y="609.37" width="3.73" height="41.22"/><path id="Pfad_13" class="cls-1" d="M133.34,481.08h34.38l14.85,60.17,17.66-60.17h24.07l17.66,60.17,14.85-60.17h34.38l-30.94,109.4h-30.79l-17.19-58.45-17.19,58.45h-30.79l-30.94-109.4Z"/><path id="Pfad_14" class="cls-1" d="M339.79,551.41c-.34-7.25-6.49-12.84-13.74-12.5-7.25.34-12.84,6.49-12.5,13.74.33,7,6.1,12.51,13.11,12.52,7.12.15,13.01-5.5,13.16-12.61,0-.38,0-.76-.03-1.14M284.62,551.41c-.44-23.22,18.03-42.39,41.25-42.83,23.22-.44,42.39,18.03,42.83,41.25.44,23.22-18.03,42.39-41.25,42.83-.26,0-.52,0-.79,0-22.69.52-41.51-17.46-42.03-40.15,0-.37-.01-.74-.01-1.11"/><path id="Pfad_15" class="cls-1" d="M498.88,542.97v47.51h-28.91v-43.6c0-5.31-2.5-8.91-7.98-8.91-6.72,0-9.22,5.31-9.22,11.57v40.95h-28.9v-43.62c0-5.31-2.5-8.91-7.97-8.91-6.72,0-9.22,5.31-9.22,11.57v40.95h-28.91v-78.15h28.91v7.34c5.23-6.3,13.08-9.82,21.26-9.53,8.91,0,15.48,3.28,19.54,9.69,5.62-6.51,13.91-10.09,22.51-9.69,17.97,0,28.91,11.57,28.91,32.82"/><path id="Pfad_16" class="cls-1" d="M567.33,551.41c0-8.28-5.47-14.68-13.91-14.68s-13.91,6.41-13.91,14.68,5.47,14.68,13.91,14.68,13.91-6.41,13.91-14.68M596.24,551.41c0,23.6-14.53,41.26-35.8,41.26-8.04.4-15.8-3.02-20.94-9.22v7.03h-28.9v-109.4h28.91v38.29c5.14-6.2,12.9-9.61,20.94-9.22,21.26,0,35.8,17.66,35.8,41.26"/><path id="Pfad_17" class="cls-1" d="M658.59,551.42c0-8.28-5.47-14.68-13.91-14.68s-13.91,6.41-13.91,14.68,5.47,14.68,13.91,14.68,13.91-6.41,13.91-14.68M687.51,512.34v78.15h-28.91v-7.04c-5.14,6.2-12.9,9.62-20.95,9.22-21.26,0-35.79-17.66-35.79-41.26s14.53-41.26,35.79-41.26c8.05-.4,15.81,3.02,20.95,9.22v-7.03h28.91Z"/><path id="Pfad_18" class="cls-1" d="M735.17,539.85v16.88c0,8.13,5.78,8.44,16.41,7.81v25.95c-33.29,4.69-45.33-5.63-45.33-32.2v-18.44h-10.94v-27.51h10.94v-13.29l28.91-8.6v21.88h16.41v27.51h-16.4Z"/><path id="Pfad_19" class="cls-1" d="M765.63,481.08h26.57l-3.13,43.76h-20.31l-3.13-43.76Z"/><path id="Pfad_20" class="cls-1" d="M867.06,565.63c0,21.26-20.47,27.05-35.16,27.05-17.35,0-30.32-4.53-36.58-18.59l25.16-11.26c1.35,4.94,5.98,8.26,11.09,7.97,3.28,0,5.31-1.25,5.31-3.44,0-7.81-37.66-1.72-37.66-30.32,0-18.13,16.72-26.88,32.35-26.88s27.66,4.84,33.91,19.85l-23.91,8.6c-1.23-3.83-4.74-6.46-8.76-6.56-3.13,0-4.84,1.25-4.84,3.28,0,7.97,39.07-.16,39.07,30.32"/><path id="Pfad_21" class="cls-1" d="M945.33,584.67c1.07,1.15,1.57,6.29,0,6.29h-37.5c-1.25,0-1.94-6.22-1.94-6.22l1.94-5.94s-3.85,1.22-4.94.59c-.55-.32-4.44-12.21-4.91-13-.35-.57-4.92-7.09-5.29-7.67-.46-.72-3.13-5.69-3.13-5.69l-5.41,2.42-1.67,1.49-1.08.96c.25,2.95.27,5.92.07,8.88-.73,3.27-1.82,6.45-3.27,9.48-1.03,1.19-5.67,3.17-6.08,1.65-1.83-6.7-7.56-28.33-9.74-36.21-.4-1.44,4.17-2.83,5.11-2.98.59-.09,6.6-.18,6.6-.18l6.61-3.54s-2.28-7.09-2.8-8.21c-.42-.91-3.38-5.33-4.81-4.83-2.23.81-4.66.92-6.95.32-2.88-.68-5.58-1.98-7.92-3.81-.99-1.47-1.65-3.14-1.93-4.89-2.32-.6-4.67-1.06-7.05-1.35-3.78-.61-9.7-2.06-9.7-2.06-3.78-.67-8.31-4.77-9.94-5.87-1.48-1-2.71-8.97-2.21-15.82-.52-3.02-.79-6.08-.81-9.14.8-2.71,1.86-5.33,3.18-7.82.67-1.29,6.2-7.34,6.2-8,0-.87-2.81-2.75-3.9-5.96s.52-7.12,1.18-10.61c-.25-2.64-.1-5.31.43-7.91.63-2.86,1.68-5.61,3.13-8.16.84-1.15,5.87-5.7,10.34-4.86,0,0,6.59-.08,7.67.14.8.17,7.96.94,7.96.94,2.63.91,4.91,2.63,6.51,4.9.86,2.71,1.34,5.52,1.43,8.36.09,1,.24,2,.45,2.99.45,1.46,1.39,2.72,2.65,3.57,1.21.3,2.46.4,3.71.31.78-.32,1.5-.77,2.13-1.33.69-.84,1.15-1.85,1.34-2.92,0-.73-.09-1.45-.26-2.16-.18-.3-.39-.59-.61-.87-.12-.16-.68-1.11-.83-1.23-1.2-2.04-1.81-4.38-1.76-6.76-.11-2.34.04-4.69.44-7,1.22-2.22,3.12-3.99,5.42-5.05,2.16-1.11,4.53-1.74,6.95-1.82,2.52-.02,5.03.26,7.49.83,3.11,1.86,5.45,4.78,6.6,8.22,0,0,5.59-.65,6.47-.65,1.24,0,7.28-.04,7.97.65.39.68.39,1.52,0,2.2-.54.54-13.09,2.63-13.09,2.63,0,0,2.64,11.38,2.39,12.03s-2.88.42-2.88.42c-.04,2.06-.61,4.08-1.66,5.85-.74,1.03-3.02,1.06-4.2.72-1.52-.44-2.62-.36-3.01.02-.91.91,3.22,5.79,3.76,8.26.21.97,1.69,7.42,1.92,8.91.26,1.74,1.13,9.56,1.13,10.98,0,2.26-1.47,9.21-1.56,9.96-.16,1.22-1.12,5.47-1.62,7.55h0s10.44,2.92,11.58,3.28c.57.18,11.47,5.08,12.64,5.63,3.07,1.81,5.95,3.91,8.61,6.27.86,2.42,1.34,4.96,1.42,7.53-.03,2.42-.51,4.82-1.42,7.07-2.59,1.75-5.27,3.35-8.03,4.81-1,.69-6.77,5.09-7.8,5.77-.96.63-7.19,3.51-7.19,3.51,0,0,2.34,6.63,3,8.04.7,1.5,7.33,12.73,7.9,13.74.5.88,2.95,8.65,4.65,12.4l9.56,3.21s9.46,5.74,10.35,6.7"/><path id="Pfad_22" class="cls-1" d="M793.14,633.15c0,3.44-2.79,6.22-6.22,6.22s-6.22-2.79-6.22-6.22,2.79-6.22,6.22-6.22h0c3.44,0,6.22,2.79,6.22,6.22"/><path id="Pfad_23" class="cls-1" d="M844.32,633.15c0,3.44-2.79,6.22-6.22,6.22s-6.22-2.79-6.22-6.22,2.79-6.22,6.22-6.22c3.44,0,6.22,2.79,6.22,6.22h0"/><path id="Pfad_24" class="cls-1" d="M895.49,633.15c0,3.44-2.79,6.22-6.22,6.22s-6.22-2.79-6.22-6.22,2.79-6.22,6.22-6.22c3.44,0,6.22,2.79,6.22,6.22h0"/><path id="Pfad_25" class="cls-1" d="M946.66,633.15c0,3.44-2.79,6.22-6.22,6.22s-6.22-2.79-6.22-6.22,2.79-6.22,6.22-6.22c3.44,0,6.22,2.79,6.22,6.22h0"/></g></svg>