<?xml version="1.0" encoding="UTF-8"?><svg id="Layer_1" xmlns="http://www.w3.org/2000/svg" viewBox="0 0 1080 1080"><defs><style>.cls-1{fill:#fff;}</style></defs><path class="cls-1" d="M107.43,476.38v128.83h128.83v-128.83H107.43ZM212.93,531.1c0,14.24-10.23,26.21-23.71,28.94l23.71,23.71h-82.16v-82.16h52.64c4.82,0,9.37,1.2,13.4,3.27-8.01,2.52-17.74,3.2-25.28,7.03-6.33,3.22-12.17,7.14-16.98,12.35-5.3,5.74-14.16,18.44-11.22,46.86.2,1.92,6.81-1.18,10.64-3.43,8.05-4.73,27.11-6.92,38.75-23.54,6.53-9.33,9.09-18.97,8.81-29.88-.04-1.56-.67-1.96-2.22-1.39-11.4,4.1-21.91,9.76-31,17.84-6.72,5.98-13.9,20.66-13.35,18.87,3.43-11.11,8.83-21.1,18.22-27.69,6.1-4.29,12.78-7.45,19.46-10.64,2.75-1.31,7.08-1.1,9.52-2.87,6.58,5.42,10.79,13.63,10.79,22.77h0v-.02Z"/><path class="cls-1" d="M316.69,555.64l-21.19-34.42v34.42h-21.04l-.1-79.26h30.09c17.11,0,29.35,11.55,29.35,25.76,0,9.88-5.95,18.14-13.71,21.68l21.24,31.81h-24.63,0ZM295.4,511.19l8.6.05c4.47.05,8.55-3.1,8.55-7.97s-4.13-7.97-8.55-7.97h-8.6v15.88Z"/><path class="cls-1" d="M369.03,476.38h21.04v79.26h-21.04v-79.26h0Z"/><path class="cls-1" d="M420.53,516.01c0-23.45,18.98-41.5,43.66-41.5,10.23.15,21.19,4.62,29.3,12l-12.09,15.54c-4.87-4.43-11.31-7.32-17.16-7.32-12.2,0-22.37,9.29-22.37,21.44s10.62,21.34,21.93,21.34c6.64,0,12.59-3.15,17.7-7.72l12,15.98c-7.57,6.89-17.65,11.65-29.69,11.65-22.37,0-43.27-16.52-43.27-41.4h0Z"/><path class="cls-1" d="M588.16,476.38v79.26h-20.99v-29.84h-23.55v29.84h-21.04v-79.26h21.04v29.75h23.55v-29.75s20.99,0,20.99,0Z"/><path class="cls-1" d="M676.34,496.05h-18.98v59.59h-21.09v-59.59h-19.02v-19.67h59.1v19.67h0Z"/><path class="cls-1" d="M698.04,516.11c0-23.79,18.88-41.84,43.51-41.84s43.51,18.05,43.51,41.84-18.88,41.54-43.56,41.54-43.46-17.94-43.46-41.54h0ZM763.78,515.96c0-12.24-9.63-21.68-22.22-21.68s-22.22,9.44-22.22,21.68,9.63,21.59,22.22,21.59,22.22-9.39,22.22-21.59Z"/><path class="cls-1" d="M884.01,476.28v80.14h-6.69l-40.76-39.48v38.74h-21.04v-80.09h6.78l40.61,39.34v-38.65h21.1Z"/><path class="cls-1" d="M913.77,542.22l12.74-12.49c3.3,4.87,9.44,7.82,16.08,7.82,4.47,0,8.85-1.62,8.85-4.87,0-4.08-8.11-7.67-15.88-11.11-10.03-4.33-18.63-10.92-18.63-22.86,0-13.71,13.03-23.5,28.07-23.5,12.09,0,21.53,5.7,24.63,13.52l-12.14,11.7c-2.36-4.18-8.46-6-12.24-6-4.33,0-7.43,2.21-7.43,4.92,0,3.64,5.61,4.82,14.16,8.41,12.39,5.21,20.6,12.78,20.6,24.48,0,15.09-14.06,24.48-29.94,24.48-13.03,0-24.88-5.75-28.86-14.51h0Z"/><path class="cls-1" d="M277.8,578.26v9.61h12.49v3.43h-12.49v10.55h14.41v3.41h-17.84v-30.37h17.84v3.37h-14.41Z"/><path class="cls-1" d="M329.8,574.81v30.92h-.17l-20.82-23.12v22.68h-3.43v-30.88h.19l20.8,23.1v-22.71h3.43Z"/><path class="cls-1" d="M369.24,574.88l-13.83,30.84h-.42l-13.77-30.84h3.64l10.32,23.53,10.36-23.53h3.69Z"/><path class="cls-1" d="M380.64,574.88h3.43v30.37h-3.43v-30.37Z"/><path class="cls-1" d="M415.79,605.26l-8.48-11.85h-5.67v11.85h-3.43l-.02-30.37h8.97c5.63,0,10.23,4.34,10.23,9.69,0,3.94-2.69,7.33-6.39,8.44l9.03,12.25h-4.24ZM407.28,590.53c3.62,0,6.6-2.75,6.6-6.03,0-3.5-3.02-6.21-6.6-6.21h-5.65v12.23l5.65.02h0Z"/><path class="cls-1" d="M429.67,590.09c0-8.61,7.03-15.64,15.6-15.64s15.62,7.03,15.62,15.64-7.03,15.56-15.64,15.56-15.59-7.01-15.59-15.56ZM457.43,590.07c0-6.69-5.46-12.17-12.17-12.17s-12.12,5.48-12.12,12.17,5.45,12.12,12.12,12.12,12.17-5.45,12.17-12.12Z"/><path class="cls-1" d="M497.85,574.81v30.92h-.17l-20.82-23.12v22.68h-3.43v-30.88h.19l20.8,23.1v-22.71h3.43Z"/><path class="cls-1" d="M541.73,574.32v30.94h-3.43v-20.61l-11.42,20.1h-.04l-11.44-20.14v20.65h-3.43v-30.94h.39l14.49,24.16,14.49-24.16h.38Z"/><path class="cls-1" d="M559.29,578.26v9.61h12.49v3.43h-12.49v10.55h14.41v3.41h-17.84v-30.37h17.84v3.37h-14.41Z"/><path class="cls-1" d="M611.29,574.81v30.92h-.17l-20.82-23.12v22.68h-3.43v-30.88h.19l20.8,23.1v-22.71h3.43Z"/><path class="cls-1" d="M644.25,578.28h-8.8v26.98h-3.43v-26.98h-8.84v-3.39h21.06v3.39h0Z"/><path class="cls-1" d="M672.17,600.26h-16.58l-2.22,4.99h-3.71l14.04-30.84h.38l14.06,30.84h-3.73l-2.22-4.99h0ZM670.85,597.29l-6.95-15.62-6.97,15.62h13.93,0Z"/><path class="cls-1" d="M707.84,601.85v3.41h-18.31v-30.37h3.43v26.96h14.89Z"/><path class="cls-1" d="M736.83,599.84l2.64-1.94c1.38,2.6,4.48,4.34,7.71,4.34,3.98,0,7.22-2.15,7.22-5.14,0-3.41-4.35-5.05-8.23-6.52-3.73-1.45-7.89-3.28-7.89-7.97s4.2-8.16,9.53-8.16c4.5,0,7.57,2.47,8.71,5.46l-2.58,1.73c-.98-2.28-3.43-3.82-6.16-3.82-3.26,0-6.04,2.15-6.04,4.86,0,2.94,3.33,4.02,7.25,5.53,4.56,1.84,8.88,3.96,8.88,8.84,0,5.24-4.84,8.65-10.68,8.65-4.99,0-8.88-2.6-10.33-5.84h0Z"/><path class="cls-1" d="M773.48,578.26v9.61h12.49v3.43h-12.49v10.55h14.41v3.41h-17.84v-30.37h17.84v3.37h-14.41Z"/><path class="cls-1" d="M818.66,605.26l-8.48-11.85h-5.67v11.85h-3.43l-.02-30.37h8.97c5.63,0,10.23,4.34,10.23,9.69,0,3.94-2.69,7.33-6.39,8.44l9.03,12.25h-4.24ZM810.14,590.53c3.62,0,6.6-2.75,6.6-6.03,0-3.5-3.02-6.21-6.6-6.21h-5.66v12.23l5.66.02h0Z"/><path class="cls-1" d="M857.19,574.88l-13.83,30.84h-.42l-13.77-30.84h3.64l10.32,23.53,10.36-23.53h3.69Z"/><path class="cls-1" d="M868.59,574.88h3.43v30.37h-3.43v-30.37Z"/><path class="cls-1" d="M884.54,590.09c0-8.54,7.09-15.64,15.6-15.64,3.9.04,7.69,1.83,10.44,4.6l-2,2.69c-2.19-2.24-5.24-3.81-8.58-3.81-6.11,0-12,5.28-12,12.16s5.84,12.12,12.06,12.12c3.43,0,6.35-1.62,8.54-3.77l1.97,2.75c-2.52,2.51-5.94,4.46-10.42,4.46-8.44,0-15.62-6.95-15.62-15.56h0Z"/><path class="cls-1" d="M925.9,578.26v9.61h12.49v3.43h-12.49v10.55h14.41v3.41h-17.84v-30.37h17.84v3.37h-14.41Z"/><path class="cls-1" d="M951.56,599.84l2.64-1.94c1.38,2.6,4.48,4.34,7.71,4.34,3.98,0,7.22-2.15,7.22-5.14,0-3.41-4.35-5.05-8.23-6.52-3.73-1.45-7.89-3.28-7.89-7.97s4.2-8.16,9.53-8.16c4.5,0,7.57,2.47,8.71,5.46l-2.58,1.73c-.98-2.28-3.43-3.82-6.16-3.82-3.26,0-6.04,2.15-6.04,4.86,0,2.94,3.33,4.02,7.25,5.53,4.56,1.84,8.88,3.96,8.88,8.84,0,5.24-4.84,8.65-10.68,8.65-4.99,0-8.88-2.6-10.33-5.84h0Z"/></svg>