<?xml version="1.0" encoding="UTF-8"?><svg id="Layer_1" xmlns="http://www.w3.org/2000/svg" viewBox="0 0 1080 1080"><defs><style>.cls-1{fill:#fff;}</style></defs><path class="cls-1" d="M561.33,572.64c1.21.37,5.09,16.57,6.26,19.19.75,1.68,1.42,1.34,2.17-.21,2.59-5.34,3.67-13.08,6.17-18.65.79-1.2,13.81-1.2,14.8-.21l6.8,19.82c.3.27,1.28.33,1.46.21.91-.6,4.48-18.01,6.48-20.15h15.35c.26,0,.76.81.74,1.21l-14.87,46.54c-.19.53-.46,1.17-.98,1.42-1.15.57-13.58.44-14.28-.37-1.13-2.44-6.89-21.39-8.03-21.45-.07,0-1.11.53-1.21.82-1.36,2.86-5.97,19.7-7.39,20.8-.99.77-13.69.73-14.57-.16-4.24-14.86-10.59-29.78-14.63-44.62-.21-.78-1.47-4.2-.11-4.2h15.83Z"/><path class="cls-1" d="M706.71,572.64c16.75,1.88,22.43,20.72,9.04,31.12-.71.56-1.68.12-1.64,1.25.09,2.66,9.9,13.5,9.57,15.29-.06.35-.57.87-.9,1.02-.83.39-15.26.49-16.45.14-1.94-.57-7.39-11.27-9.22-13.33-.95-.87-2.39-.4-3.6-.48v13.19c0,.05-.67.72-.72.72h-14.87c-.08,0-1.2-1.11-1.2-1.2v-47.01c0-.05.67-.72.72-.72h29.27ZM702.39,586.56c-2.59-.43-6.16.31-8.88,0v9.11h8.88c.22,0,2.7-1.29,2.97-1.59,2.54-2.71.59-6.94-2.97-7.53Z"/><path class="cls-1" d="M771.97,572.64h24.47c7.06,0,17.01,6.08,20.17,12.45,8.18,16.51-3.42,36.48-22.09,36.48h-22.55c-.05,0-.72-.67-.72-.72v-47.49c0-.13.56-.48.72-.72ZM787.56,587.04v19.43c0,1.84,9.17-.32,10.72-1.28,5.4-3.35,5.39-12.31.29-15.96-3.17-2.27-7.27-2.31-11-2.19Z"/><path class="cls-1" d="M334.03,571.81c35.86-4.86,43.34,41.28,13.28,49.74-20.78,5.85-40.87-12.12-33.34-33.33,2.76-7.78,11.81-15.29,20.05-16.41ZM338.36,586.18c-13.09,1.28-11.65,23.4,2.7,21.44,12.08-1.65,10.09-22.69-2.7-21.44Z"/><path class="cls-1" d="M641.59,571.82c34.76-4.15,42.71,39.54,14.28,49.3-20.37,6.99-41.34-9.82-35.26-31.41,2.5-8.87,11.8-16.79,20.98-17.88ZM645.44,586.18c-13.21,1.29-11.57,23.84,3.19,21.46,11.16-1.81,9.78-22.73-3.19-21.46Z"/><path class="cls-1" d="M277.04,572.64v16.79h14.87v-16.07c0-.05.67-.72.72-.72h15.59v48.21c0,.05-.67.72-.72.72h-14.87c-.05,0-.72-.67-.72-.72v-16.55h-14.87v16.55c0,.05-.67.72-.72.72h-14.87c-.05,0-.72-.67-.72-.72v-47.49c0-.05.67-.72.72-.72h15.59Z"/><path class="cls-1" d="M481.92,586.08v4.8h22.79c.05,0,.72.67.72.72v10.55c0,.05-.67.72-.72.72h-22.79v4.8h24.71c.08,0,1.2,1.11,1.2,1.2v11.99c0,.05-.67.72-.72.72h-40.78c-.05,0-.72-.67-.72-.72v-47.49c0-.05.67-.72.72-.72h40.3c.05,0,.72.67.72.72v11.99c0,.05-.67.72-.72.72h-24.71Z"/><path class="cls-1" d="M411.29,577.53c.46.79-.01,1.82-.35,2.59-.42.95-6.03,8.59-6.61,8.76-1.76.54-3.43-1.28-5.1-1.93-2.82-1.09-9.67-3.16-12.29-1.56-1.18.72-1.38,1.72-.29,2.63,1.73,1.45,13.25,3.16,16.9,4.69,6.79,2.83,10.56,7.46,9.7,15.15-2.06,18.47-30.54,16.68-42.49,9.49-1.91-1.15-4.84-2.48-3.25-4.85.68-1.01,7.15-8.48,7.72-8.59,5.77,3.08,12.73,6.41,19.51,5.08,2.74-.54,1.87-2.62-.49-3.62-7.46-3.16-23.11-2.79-24.97-13.89-3.61-21.48,24.57-23.26,38.29-16.22.53.27,3.61,2.08,3.72,2.27Z"/><path class="cls-1" d="M446.42,586.56v34.3c0,.05-.67.72-.72.72h-14.87c-.08,0-1.2-1.11-1.2-1.2v-33.82h-13.19c-.08,0-.85-.74-.95-.97-.95-2.02-.13-10.34.23-12.95h44.38c.05,0,.72.67.72.72v12.47c0,.05-.67.72-.72.72h-13.67Z"/><path class="cls-1" d="M528.46,607.18h21.83c.36,0,1.09,1.17,1.19,1.69.24,1.24.15,10.97-.23,11.74-.2.4-.63.73-1.06.86l-37.56-.15c-.23-.11-.97-.87-.97-.95v-47.01c0-.05.67-.72.72-.72h15.35c.05,0,.72.67.72.72v33.82Z"/><path class="cls-1" d="M744.38,572.64c-.16.47.48,1.04.48,1.2v33.34h21.83c.05,0,.72.67.72.72v12.95c0,.05-.67.72-.72.72h-37.9c-.05,0-.72-.67-.72-.72v-47.49c0-.05.67-.72.72-.72h15.59Z"/><path class="cls-1" d="M711.26,700.25c-4.64,2.08-13.3,5.21-17.92,1.85-3.21-2.34-3-6.64-2.66-10.19.74-7.64,2.48-17.78,3.81-25.45,1.03-5.93,6.21-5.87,9.5-1.84-.98,6.59-2.87,13.91-3.31,20.51-.68,10.1-.06,13.49,10.61,8.57l5.1-24.53c5.57-21.18,37.34,2.37,35.61,15.93-1.41,11.06-21.24,19.56-30.93,19.96-1.34.06-6.2-.42-7.29-.85-1.5-.59-2.35-2.43-2.53-3.95ZM726.68,668.17c-.29.25-1.86,6.24-2.12,7.23-1.01,3.83-4.6,18.95-2.02,21.51,2.9,2.87,16.04-2.81,18.69-5.8,5.92-6.69-2.8-18.72-9.31-21.82-1.03-.49-4.42-1.84-5.24-1.12Z"/><path class="cls-1" d="M607.63,692.1c-3.74,3.07-8.34,6.09-13.46,5.06-3.37-.68-5.18-2.44-6.44-5.55-1.72-4.24-2.23-19.18-.16-23.18,1.37-2.64,2.96-5.08,6.3-4.07,2.82.86,1.31,5.02,1.27,6.84-.09,4.38.51,9.89,2.48,13.87.77,1.56,2.78,4.84,4.52,3.68,3.93-2.61,2.39-6.89,3.42-10.49,1.09-3.81,5.92-7.07,9.05-3.46,1.66,1.91.23,4,.27,5.96.07,2.79,1.81,6.48,1.5,9.53.4.5,1.13,4.63,2.04,4.19,2.96-1.43,5.63-16.02,6-19.43.41-3.83.04-17.57,2.42-19.65s5.44-.36,6.12,2.5c1.01,4.27.09,13.43-.43,18.06-1.19,10.48-4.78,21.86-14.67,27.07-8.18,4.31-8.93-5.08-10.22-10.94Z"/><path class="cls-1" d="M688.2,699.73c-.21.25-4.97.98-5.81.9-1.56-.15-6.53-1.83-8.06-2.54-1.74-.81-4.23-3.41-5.98-3.14-.4.06-.83,5.21-3.45,7.15-1.3.96-5.85,1.88-6.37.24-.31-.98,2.29-7.9,2.7-9.67,2.05-8.99,1.92-25.04,8.77-31.05,5.21-4.57,10.22-4.75,16.18-1.29,9.49,5.51,5.23,15.44-1.82,20.92-1.61,1.25-8.9,4.5-9.05,5.37s5.87,6.1,6.93,6.9c1.24.94,8.01,3.74,5.96,6.2ZM670.97,681.06c5.26-.46,12.76-3.99,10.72-10.48-.67-2.12-4.71-6.22-6.64-3.91-.7.83-4.62,13.88-4.07,14.39Z"/><path class="cls-1" d="M645.42,661.5c2.56-.42,5.47,1.31,7.47,2.86,3.43,2.66,7.65,10.2,8.02,14.53,1.08,12.87-6.24,23.82-20.2,20.68-2.78-.63-6.8-3.57-7.53-6.38-1.71-6.53,1.06-14.3,4.29-19.95.68-1.19,2.46-2.72,2.91-3.81,1.18-2.86.34-7.17,5.04-7.93ZM646.74,670.99c-1.12.27-4.54,9.91-4.83,11.49-2.08,11.33,8.33,15.3,11.32,5.09.85-2.9.12-4.5-1.05-7.15-.84-1.91-3.13-6.73-4.15-8.33-.3-.46-.57-1.27-1.3-1.1Z"/><path class="cls-1" d="M526.55,666.19c-.31,1.06,1.21,1.45,1.28,2.14.08.75-1.29,2.97-1.54,4.07-1.13,4.85-.94,9.91-2.62,14.61,2.32,1.33,8.03-.14,9.61-2.34,3.24-4.52.93-13.17,5.25-16.34.91-.67,1.94-1.24,3.11-1.17.16,0,2.99.61,3.13.69,2.27,1.46.17,4.78-.24,6.47-2.44,10.21-4.09,20.49-5.02,30.96-.76,1.91-3.73,2.75-5.55,1.7-4.04-2.33-2.35-11.01-2.13-14.89-.38-.38-8.61,2.24-9.37,2.86-2.36,1.92-1.43,8.73-6.7,7.71-2.72-.53-1.16-6.15-1.65-7.87-.06-.22-3.35-1.14-3.38-2.92-.02-1.49,1.7-3.95,2.59-5.11.25-.33.16-1.15.35-1.31.37-.31,1.56.13,1.82-.09.32-.28,1.3-7.35,1.42-8.42.09-.75-.41-1.62-.33-2.68.13-1.71.76-3.38,1.82-4.7-2.01.1-5.53.36-6.61,2.26-.6,1.06-2.17,6.25-2.45,7.63-1.22,6.01-.77,14.5-2.5,20.05-.84,2.7-4.23,4.84-5.59,1.84-2.47-5.44-1.13-17.34.01-23.25.47-2.42,1.48-3.91,1.78-6.13-.62.21-1.1.73-1.78.86-4.44.85-8.86,1.15-13.33,1.54-3.32.29-6.79,1.79-9.88-.31.15-2.43,2.63-8.82,5.09-9.28,1.31-.25,2.92.16,4.3-.02,12.72-1.67,26.18-2.37,38.75-4.44,2.08-.34,5.57-2.78,6.86.14,1.07,2.43-4.2,6.07-6.49,5.74Z"/><path class="cls-1" d="M553.89,681.06c1.81-.04,3.64.11,5.46-.06,1.7-.16,9.23-2.29,9.83-1.31.99,3.46-1.81,4.82-4.41,6.25-3.84,2.12-8.4,3.43-12.8,3.27-.09,2.38-.5,7.07,2.65,7.67,4.88.92,13.07-1.55,17.16-.37s.72,4.88-1.93,6.03c-5.95,2.57-16.16,3.7-22.41,1.99-3.41-.93-5.53-5.03-5.55-8.36-.02-2.16,1.72-13.51,2.51-15.23.44-.97,1.4-1.67,1.9-2.9,1.15-2.82,3.22-11.62,6.5-12.25.74-.14,1.55.33,2.06.14.66-.24,3.88-3.3,5.1-3.97,2.67-1.48,8.27-2.85,10.27.13s-5.87,5.22-8.04,6.42c-.97.54-4.42,2.57-4.97,3.18-1.74,1.94-2.03,7-3.34,9.37Z"/><path class="cls-1" d="M431.9,659.59c1.34,1.52-1.54,4.03-2.79,4.89-2.41,1.64-5.85,2.14-8.38,3.63-.63,4.23-3.15,8.08-3.1,12.47,2.97,1.59,13.33-3.72,14.89-2.66,1.81,1.23-2.71,5.13-3.7,5.93s-3.17,2.28-4.32,2.88c-1.99,1.05-4.41,1.51-6.28,2.35-2.15.97,1.14,4.55,3.03,4.91,3,.56,16.61-2.58,17.48.31.31,1.02-1.99,3.58-2.85,4.28-3.58,2.92-14.42,5.22-19.03,5.48-2.88.16-7.5-3.24-8.44-5.86-1.43-3.96.37-8.36-2.53-11.38-3.23,3.38-7.89,7.29-12.45,8.65-2.47.74-7.89.22-4.13,4.07,3.3,3.38,14.25-2.12,18.73.22.2,1.09-.28,1.48-.94,2.17-3.33,3.48-17.42,8.18-22.12,7.2-3.9-.81-5.22-3.06-5.73-6.75-.53-3.9-.95-12.9-.36-16.67.5-3.13,2.48-6.72,2.71-10.26.21-3.18-1.56-4.89,1.25-7.84,3.32-3.5,12.49-3.69,16.67-1.8,3.51,1.59-.77,5.03-3.34,5.52-2.35.45-4.05-.54-5.89,1.78-1.59,2-2.99,10.95-2.29,13.34.94,3.22,6.08,2.66,8.49,1.49,3.14-1.53,9.32-6.84,11.78-9.34.52-.52,1.43-.81,1.73-1.28,1.13-1.75-1.2-6.54-.98-8.48.13-1.15,2.18-4.97,3.07-5.6.97-.69,2.13-.3,3.17-.67,3.06-1.09,14.25-5.76,16.66-3.01Z"/><path class="cls-1" d="M356.69,690.18c.81.17.97-.22,1.37-.79.79-1.14,3.64-10.88,4.25-13.02,1.34-4.7,2.11-11.57,3.87-15.79,1.34-3.2,4.46-4.29,7.47-2.48,2.09,1.26.78,2.21.76,4-.12,9.62-1.23,19.25-1.44,28.78-.12,5.79.17,11.15,1.48,16.8-.22,1.26-4.36,3.1-5.55,3.08-2.27-.05-2.79-2.78-3.06-4.56-.44-2.93-.88-8.05-.91-10.98-.02-1.31.77-3.04.38-4.56-1.41,1.19-1.7,2.98-2.89,4.54-3.73,4.93-7.53,6.93-12.47,1.94l-2.87-6.48c.44,2.35-.47,4.8-.52,6.95-.04,1.57,1.04,2.9.27,4.55-.16.35-3.63,4.63-3.92,4.72-6.25,1.96-3.23-8.62-3.03-11.67.64-9.79.29-23.13,2.63-32.39,1.23-4.87,3.28-9.2,8.29-4.42l2.1,16.13,3.79,15.64Z"/><path class="cls-1" d="M459.48,670.62c-.79.77-2.71,9.13-2.93,10.74-.57,4.15-.14,8.84-.54,12.89s-3.44,8.56-7.44,5.05c-2.83-2.48-2.48-7.68-2.17-11.3.48-5.57,3.24-10.79,4.81-16.05l-17.03,2.92c-4.68-.26-.85-9.51,1.89-10.63l17.76-1.43c2.87-2.18,4.87-.31,7.83-.1,2.17.16,5.07-.34,7.54.13,5.25.99-2.56,5.76-4.55,6.46-1.21.43-4.43.58-5.17,1.31Z"/><path class="cls-1" d="M477.5,369.38l124.12-.13c11.96,1.14,21.42,10.1,22.34,22.28v124.29c-1.14,11.86-10.84,21.22-22.79,21.83h-122.87c-13.6-1.29-21.94-10.78-22.79-24.22-2.49-39.02,1.9-80.66.02-119.95.39-12.74,9.13-22.78,21.97-24.09ZM520.79,428.25v-29.03s-.96-2.4-.96-2.4l-34.81-.26-1.9.98-.14,111.44.86,1.06h35.99s.6-.84.6-.84l.36-30.59c-1.55-.1-5.35.72-4.73-1.6,2.43-3.15,22.05-21.58,22.05-23.59,0-1.86-19.45-20.23-21.88-23.27l-.24-1.43c.9-.69,4.63-.31,4.8-.48ZM559.17,478.61l-.02,29.53c.05,1.55.75,1.97,2.16,2.16,10.14,1.34,23.18-1.07,33.64,0,1.75.08,2.15-1.63,2.15-3.12v-107.5c.01-.99-.27-2.67-1.3-3.02l-34.49-.1-1.9.98-.24,30.71c1.7.07,3.75-.57,4.7,1.19l-22.44,23.98c.05.93.67,1.51,1.18,2.18,5.42,7.06,14.86,13.55,20.61,20.66,2.36,3.2-3.78,2.09-4.05,2.36Z"/></svg>