<?xml version="1.0" encoding="UTF-8"?><svg id="Layer_1" xmlns="http://www.w3.org/2000/svg" viewBox="0 0 1077 1080"><defs><style>.cls-1{fill:#fff;}</style></defs><path class="cls-1" d="M990.29,289.62v702.19c-1.3.06-2.6.18-3.9.18-298.14,0-596.29,0-894.43,0-.96,0-1.92-.03-2.87-.04-1.18,0-1.76-.58-1.76-1.76,0-.87-.04-1.74-.04-2.61,0-298.32,0-596.63,0-894.95,0-1.21.12-2.43.18-3.64,234.06,0,468.12,0,702.19,0,.65.7,1.28,1.42,1.95,2.1,23.3,23.34,46.59,46.68,69.9,70.02,13.53,13.54,27.06,27.09,40.6,40.62,23.51,23.5,47.02,46.99,70.55,70.47,5.85,5.84,11.75,11.62,17.63,17.42ZM111.71,540.18c0,140.54,0,281.08,0,421.62q0,5.5,5.56,5.5c280.9,0,561.81,0,842.71,0q5.8,0,5.8-5.88c0-218.56,0-437.12,0-655.68,0-.87-.06-1.75,0-2.61.15-1.98-.65-3.44-2.05-4.84-16.4-16.35-32.76-32.74-49.13-49.12-20.93-20.93-41.85-41.87-62.79-62.79-23.35-23.31-46.76-46.56-70.04-69.95-2.36-2.37-4.68-3.28-7.98-3.28-218.99.07-437.99.06-656.98.06-.7,0-1.4.06-2.09,0-2.26-.24-3.25.71-3.03,3,.09.95.01,1.91.01,2.87,0,140.37,0,280.73,0,421.1Z"/><path class="cls-1" d="M261.47,262.12c-1.94,5.4-3.74,10.48-5.6,15.53-5.94,16.18-11.91,32.35-17.87,48.52-.06.16-.11.33-.19.49-.38.75-.35,2.01-1.3,2.08-1.03.08-1.11-1.18-1.41-1.94-6.71-16.91-13.4-33.82-20.07-50.75-7.78-19.76-15.53-39.53-23.28-59.3-3.37-8.59-6.73-17.18-10.07-25.78-.98-2.52-.76-2.86,1.98-2.87,8.27-.03,16.54.06,24.81-.06,2.13-.03,3.13.85,3.84,2.69,4.37,11.28,8.8,22.54,13.2,33.81,3.29,8.43,6.55,16.88,9.83,25.32.25.63.57,1.23.91,1.96,1.23-.61,1.24-1.77,1.59-2.67,7.52-19.21,15.01-38.42,22.55-57.62.38-.98.46-2.63,1.77-2.58,1,.04,1.14,1.6,1.51,2.54,7.47,19.14,14.91,38.28,22.38,57.42.37.96.56,2.02,1.36,2.8.89-.19.88-.99,1.11-1.6,7.57-19.47,15.17-38.92,22.63-58.43,1.08-2.82,2.59-3.76,5.59-3.67,7.74.22,15.5.06,23.24.08,3.02,0,3.25.34,2.14,3.17-10.16,25.84-20.36,51.67-30.52,77.51-7.45,18.96-14.85,37.93-22.28,56.9-.16.41-.29.82-.48,1.21-.33.68-.38,1.8-1.22,1.84-1.08.05-1.11-1.16-1.39-1.92-7.74-20.52-15.45-41.05-23.18-61.58-.36-.95-.48-2.03-1.59-3.11Z"/><path class="cls-1" d="M759.31,839.61c0,1.37,0,2.4,0,3.43,0,16.97,0,33.95,0,50.92,0,4.22-.16,4.36-4.43,4.37-6.79,0-13.58.01-20.37,0-3.84,0-3.98-.15-3.98-3.96-.01-40.39-.02-80.77-.02-121.16,0-3.48.07-6.97-.02-10.44-.06-2.17.66-3.13,2.99-3.12,15.23.08,30.48-.44,45.69.21,17.44.74,31.29,8.8,40.95,23.45,5.21,7.9,5.87,17.01,5.61,26.14-.32,11.17-4.19,21.05-11.55,29.55-3.02,3.49-6.56,6.25-10.78,8.04-1.96.84-2.46,1.61-1.16,3.61,9.45,14.51,18.81,29.08,28.15,43.66.66,1.04,2.15,2.06,1.39,3.38-.65,1.13-2.24.62-3.42.62-8.88.03-17.76-.07-26.63.07-2.67.04-4.29-.89-5.73-3.12-11.47-17.87-23.05-35.67-34.6-53.48-.46-.7-.73-1.59-2.09-2.18ZM759.02,806.42c0,5.31.01,10.61,0,15.92,0,1.58.34,2.73,2.26,2.76,5.48.08,10.96.47,16.42.26,10.47-.39,17.83-7.62,18.55-17.91.5-7.1-3.45-17.02-15.69-18.91-6.5-1-13.01-.73-19.52-.75-1.81,0-2.03,1.28-2.02,2.7,0,5.31,0,10.61,0,15.92Z"/><path class="cls-1" d="M422.07,457.87c-.79,1.45-.53,2.51-.53,3.52-.02,17.24,0,34.47-.02,51.71,0,3.92-.05,3.96-3.9,3.97-6.96,0-13.93.01-20.89,0-3.67,0-3.74-.07-3.74-3.86-.01-32.82-.01-65.63-.02-98.45,0-10.88,0-21.76,0-32.64,0-3.41.2-3.65,3.47-3.65,14.54-.02,29.08-.31,43.61.09,19.22.53,34.01,9.19,43.72,25.89,4.31,7.4,4.7,15.79,4.4,24.09-.42,11.54-4.55,21.71-12.43,30.25-2.81,3.04-6.11,5.47-9.94,7.05-2.11.87-2.29,1.7-1.06,3.61,9.55,14.76,19,29.58,28.46,44.4.53.84,1.65,1.72,1.03,2.76-.52.87-1.77.46-2.7.46-9.31.02-18.63-.06-27.94.06-2.29.03-3.65-.77-4.87-2.67-11.28-17.58-22.64-35.1-33.99-52.64-.79-1.23-1.64-2.42-2.67-3.94ZM421.49,425.24c0,5.22.04,10.44-.02,15.66-.02,1.94.68,2.88,2.73,2.89,5.22.03,10.44.33,15.65.25,10.51-.16,18.03-7.22,18.9-17.52.79-9.36-5.22-16.82-15.29-18.9-6.63-1.37-13.35-.76-20.04-.81-1.87-.01-1.93,1.39-1.93,2.76,0,5.22,0,10.44,0,15.66Z"/><path class="cls-1" d="M186.04,829.07c0-21.85,0-43.71,0-65.56,0-3.8.02-3.82,3.73-3.83,11.84,0,23.68-.06,35.52.01,18.87.11,35.1,14.3,37.78,32.97,1.11,7.7-.87,14.85-4.1,21.74-.67,1.44-.86,2.4.85,3.39,15.62,9,21.98,22.98,20.92,40.48-1.13,18.58-15.78,35.2-33.91,39.1-2.9.62-5.84.95-8.81.95-16.02-.01-32.04,0-48.06,0-3.87,0-3.91-.06-3.91-3.96,0-21.77,0-43.53,0-65.3ZM214.39,853.98c0,4.52.03,9.05-.01,13.57-.02,1.87.57,2.94,2.69,2.92,6.79-.06,13.58.16,20.36-.1,5.45-.21,10.27-2.22,13.18-7.18,6.38-10.86-1.04-24.7-13.61-25.25-6.6-.29-13.22-.05-19.83-.12-2.03-.02-2.8.89-2.78,2.84.05,4.44.02,8.87.01,13.31ZM214.4,799.86c0,3.22-.01,6.43,0,9.65,0,1.22.24,2.39,1.85,2.19,3.1-.39,6.25-.16,9.34-.82,6.33-1.33,10.84-6.9,10.29-12.85-.58-6.32-5.42-10.48-12.31-10.56-2.09-.02-4.17.05-6.26,0-2.12-.06-2.98.94-2.94,3.01.06,3.13.01,6.26.02,9.39Z"/><path class="cls-1" d="M186.04,614.62c0-14.02,0-28.03,0-42.05,0-3.41.12-3.53,3.52-3.54,7.05-.02,14.1-.02,21.16,0,3.71,0,3.85.14,3.85,3.8,0,26.38.02,52.76,0,79.14,0,9.99,4.11,17.89,12.29,23.5,8.3,5.69,17.42,6.21,26.35,2.12,9.52-4.36,15.55-12.11,15.89-22.79.5-15.83.2-31.69.22-47.53.02-11.41,0-22.81.01-34.22,0-3.84.21-4.03,3.94-4.03,7.23-.01,14.45.06,21.68-.03,2.35-.03,3.24.81,3.23,3.19-.05,27.08,0,54.15-.06,81.23-.07,30.55-23.94,51.62-47.47,55.08-29.48,4.33-53.92-14.13-61.73-37-1.97-5.78-2.94-11.79-2.91-17.95.08-12.97.02-25.95.02-38.92Z"/><path class="cls-1" d="M289.14,447.82c0-21.76,0-43.53,0-65.29,0-4.24.06-4.29,4.17-4.29,25.16,0,50.32,0,75.48,0,4.16,0,4.16.02,4.17,4.23,0,6.88.01,13.75,0,20.63,0,3.4-.2,3.59-3.8,3.59-15.67.01-31.34,0-47.01.01-4.2,0-4.27.08-4.28,4.21,0,6.36-.01,12.71,0,19.07,0,3.47.19,3.64,3.75,3.64,11.32,0,22.63,0,33.95,0,3.43,0,3.64.18,3.65,3.46.03,7.14-.08,14.28.05,21.41.05,2.64-.96,3.51-3.51,3.49-11.14-.07-22.29-.03-33.43-.02-4.4,0-4.47.08-4.48,4.59,0,6.36-.02,12.71,0,19.07.01,3.17.27,3.42,3.45,3.42,15.93.01,31.86,0,47.79.01,3.78,0,3.84.07,3.85,3.75.01,7.14-.07,14.28.04,21.41.04,2.37-.8,3.26-3.16,3.25-25.86-.04-51.71-.06-77.57.01-2.95,0-3.14-1.64-3.14-3.86.02-21.94.01-43.88.01-65.81Z"/><path class="cls-1" d="M654.75,447.93c0-21.85,0-43.7,0-65.55,0-4.07.06-4.14,4.04-4.14,25.33,0,50.67,0,76,0,3.77,0,3.85.08,3.85,3.75.01,7.05.01,14.1,0,21.15,0,3.34-.2,3.55-3.56,3.55-15.84.02-31.69,0-47.53.01q-4.26,0-4.27,4.15c0,6.44-.01,12.88,0,19.33,0,3.23.21,3.43,3.41,3.43,11.58.01,23.16.07,34.73-.04,2.63-.03,3.54.85,3.5,3.44-.11,7.22-.11,14.45,0,21.68.04,2.55-1.02,3.32-3.42,3.3-11.49-.06-22.98-.03-34.47-.01-3.52,0-3.75.23-3.76,3.66-.01,6.62-.01,13.23,0,19.85,0,3.43.13,3.56,3.5,3.56,15.93,0,31.86,0,47.79,0,4.05,0,4.06.02,4.07,4.05,0,7.05-.08,14.1.04,21.15.04,2.4-.84,3.23-3.18,3.22-25.85-.04-51.71-.05-77.56.02-2.86,0-3.23-1.41-3.22-3.75.05-21.94.03-43.87.03-65.81Z"/><path class="cls-1" d="M363.16,257.15c0-21.85,0-43.7,0-65.56,0-3.96.01-3.98,3.85-3.98,25.34,0,50.67,0,76,0,3.63,0,3.85.2,3.86,3.83.03,6.96.03,13.93,0,20.89-.02,3.49-.26,3.73-3.71,3.73-15.93.01-31.86,0-47.8.01-3.65,0-3.79.14-3.8,3.85-.01,6.53-.02,13.06,0,19.59.01,3.21.24,3.44,3.42,3.44,11.41.01,22.81,0,34.22.01,3.51,0,3.73.21,3.74,3.67.02,7.14-.06,14.28.04,21.42.04,2.49-.88,3.38-3.36,3.37-11.4-.08-22.81-.04-34.22-.02-3.66,0-3.83.18-3.84,3.84-.01,6.62.07,13.23-.04,19.85-.04,2.5.87,3.33,3.36,3.32,15.84-.08,31.69-.04,47.54-.04,4.42,0,4.45.02,4.46,4.56.01,6.79-.06,13.58.03,20.37.03,2.49-.77,3.56-3.46,3.55-25.68-.07-51.37-.07-77.05,0-2.49,0-3.29-.87-3.29-3.35.07-22.11.04-44.23.04-66.34Z"/><path class="cls-1" d="M300.96,828.67c0-21.77,0-43.54,0-65.31,0-4.12.02-4.15,3.99-4.15,25.25,0,50.5,0,75.76,0,3.77,0,3.97.19,3.98,3.99.02,6.88.03,13.76,0,20.64-.02,3.67-.23,3.86-3.83,3.86-15.85,0-31.7,0-47.54,0-3.81,0-3.91.1-3.92,4,0,6.7.06,13.41-.03,20.11-.03,2.35.8,3.23,3.2,3.21,11.58-.08,23.16.03,34.74-.09,2.61-.03,3.55.8,3.51,3.43-.12,7.14-.1,14.28,0,21.42.03,2.46-.82,3.36-3.34,3.33-11.49-.1-22.99-.05-34.48-.04-3.37,0-3.58.2-3.59,3.52-.02,6.62-.02,13.24,0,19.85.01,3.29.26,3.53,3.62,3.53,15.76.01,31.52,0,47.28,0,4.22,0,4.38.14,4.39,4.42.02,6.79.03,13.58,0,20.38-.02,3.36-.32,3.66-3.52,3.66-25.6.01-51.2-.02-76.8.05-2.62,0-3.45-.88-3.44-3.49.08-22.12.05-44.23.05-66.35Z"/><path class="cls-1" d="M626.97,828.8c0-21.77,0-43.54,0-65.31,0-4.26,0-4.28,4.12-4.28,25.17,0,50.33,0,75.5,0,3.94,0,4.1.15,4.11,4.13.02,6.88.03,13.76,0,20.64-.02,3.5-.26,3.73-3.7,3.73-15.93.01-31.87,0-47.8.01-3.65,0-3.78.13-3.79,3.87-.01,6.7.07,13.41-.04,20.11-.04,2.47.81,3.37,3.33,3.35,11.49-.1,22.99-.05,34.48-.04,3.39,0,3.58.17,3.59,3.5.03,7.14-.04,14.28.03,21.42.02,2.31-.78,3.22-3.2,3.2-11.49-.09-22.99-.04-34.48-.04-3.55,0-3.71.15-3.72,3.66-.02,6.53-.02,13.06,0,19.59,0,3.46.22,3.66,3.76,3.66,15.76.01,31.52,0,47.28,0,4.06,0,4.24.17,4.26,4.29.03,6.79.03,13.58,0,20.38-.02,3.53-.28,3.79-3.66,3.8-25.51.01-51.03.01-76.54,0-3.37,0-3.51-.17-3.51-3.57,0-22.03,0-44.06,0-66.09Z"/><path class="cls-1" d="M229.21,518.12c-24.28-.02-42.03-13.16-47.47-31.88-.27-.92-.46-1.86-.68-2.79-.35-1.47.23-2.36,1.7-2.66,8.1-1.65,16.2-3.28,24.29-4.96,1.41-.29,1.81.44,2.18,1.56,4.06,12.55,18.06,15.88,27.39,6.52,5.48-5.5,4.55-14.03-1.99-18.18-3.41-2.16-7.13-3.62-11.02-4.65-6.66-1.75-13.28-3.66-19.25-7.22-9.97-5.94-18.08-13.7-20.78-25.34-3.82-16.53,1.47-30.41,14.16-41.4,21-18.19,58.68-11.12,68.1,21.85.19.67.28,1.36.48,2.03.67,2.2.03,3.31-2.39,3.79-7.6,1.5-15.15,3.18-22.71,4.86-1.92.43-2.61-.2-2.93-2.11-1.23-7.26-8.38-12.34-15.48-11.15-7.45,1.25-12.47,8.17-11.26,15.66.59,3.66,2.77,6.28,5.77,8.34,4.15,2.85,8.83,4.46,13.57,5.97,7.13,2.27,14.36,4.28,20.66,8.56,20.88,14.18,23.92,39.59,6.82,58.25-8.98,9.8-20.26,14.73-29.15,14.95Z"/><path class="cls-1" d="M525.14,378.45c3.74,0,7.49.13,11.23-.04,2.6-.12,3.86.98,4.86,3.3,8.08,18.88,16.27,37.72,24.43,56.57,1.8,4.15,3.59,8.31,5.41,12.45.27.61.34,1.6,1.11,1.62.96.02,1.01-1.07,1.31-1.74,4.25-9.73,8.48-19.47,12.7-29.21,5.7-13.18,11.44-26.34,17.03-39.56,1.02-2.42,2.3-3.5,5.02-3.45,7.74.16,15.49.04,23.24.07,3.49.01,3.72.37,2.3,3.58-11.78,26.58-23.59,53.14-35.37,79.72-8.04,18.14-16.05,36.3-24.11,54.43-.51,1.15-.7,3.04-1.99,3.12-1.44.08-1.55-1.86-2.04-2.97-14-31.68-27.96-63.38-41.92-95.08-5.75-13.06-11.46-26.14-17.21-39.21-1.41-3.22-1.24-3.56,2.25-3.59,3.92-.03,7.83,0,11.75,0Z"/><path class="cls-1" d="M573.08,843.03c0,17.24,0,34.48,0,51.72,0,3.36-.18,3.56-3.53,3.57-7.05.03-14.11.02-21.16,0-3.64,0-3.84-.21-3.84-3.85,0-33.61,0-67.22,0-100.83,0-.96-.07-1.92.01-2.87.2-2.27-.78-3.07-3.04-3.05-8.97.08-17.94.04-26.91.03-3.84,0-3.92-.07-3.93-3.97-.02-6.88.06-13.76-.03-20.64-.03-2.49.7-3.53,3.42-3.52,29.95.08,59.91.07,89.86.01,2.48,0,3.43.83,3.4,3.31-.09,7.23-.07,14.45-.01,21.68.02,2.33-.87,3.2-3.26,3.17-9.23-.1-18.46.03-27.69-.08-2.51-.03-3.34.83-3.33,3.33.08,17.33.04,34.65.04,51.98Z"/><path class="cls-1" d="M461.77,843.26c0,17.15,0,34.3,0,51.45,0,3.43-.14,3.6-3.47,3.61-7.14.03-14.28.03-21.42,0-3.42-.01-3.62-.23-3.62-3.79,0-33.78,0-67.56,0-101.34,0-.87-.07-1.75,0-2.61.19-2.2-.87-2.87-2.95-2.86-9.05.06-18.11.03-27.16.02-3.59,0-3.72-.11-3.74-3.63-.03-7.05.05-14.1-.04-21.15-.03-2.43.8-3.34,3.34-3.34,29.95.07,59.9.07,89.84,0,2.45,0,3.47.79,3.45,3.28-.07,7.23-.06,14.45,0,21.68.02,2.3-.81,3.23-3.24,3.2-9.14-.11-18.28-.05-27.42-.04-3.4,0-3.56.17-3.56,3.52,0,17.32,0,34.65,0,51.97Z"/></svg>