<?xml version="1.0" encoding="UTF-8"?><svg id="Layer_1" xmlns="http://www.w3.org/2000/svg" viewBox="0 0 1080 1080"><defs><style>.cls-1{fill:#fff;}</style></defs><path class="cls-1" d="M286.72,505.66c19.92,0,34.6,15.23,34.6,34.33s-14.6,34.33-34.6,34.33-34.6-15.05-34.6-34.33,14.6-34.33,34.6-34.33ZM286.72,561.38c11.93,0,20.37-9.55,20.37-21.39s-8.44-21.39-20.37-21.39-20.37,9.64-20.37,21.39,8.44,21.39,20.37,21.39Z"/><path class="cls-1" d="M332.16,570.56v-13.58c4.59,2.38,10.64,4.41,16.61,4.77,2.11.09,4.12,0,5.88-.36,5.05-.73,7.99-2.67,7.99-5.88,0-4.41-3.94-6.7-13.03-10-11.56-4.23-18.35-9.08-18.35-20.55s9.73-19.28,23.96-19.28c6.61,0,13.13,1.47,17.25,3.3v13.03c-3.85-2.29-10.09-4.03-16.16-4.03-6.79,0-11.2,2.67-11.2,6.88,0,3.85,3.58,6.52,12.58,9.91,11.56,4.5,18.72,9.37,18.72,20.46,0,11.93-8.99,19.1-24.6,19.1-7.53,0-14.87-1.65-19.64-3.76h0Z"/><path class="cls-1" d="M414.13,505.94h.55l32.13,67.1h-14.78l-5.32-11.66h-24.69l-5.14,11.66h-14.78l32.03-67.1h0ZM422.48,551.47c-3.03-6.88-5.97-13.85-7.99-19.64-1.93,4.59-5.41,13.4-8.17,19.64h16.16Z"/><path class="cls-1" d="M474.16,538.89l-3.49-3.03v37.18h-13.49v-67.1h.27l31.48,31.75,31.48-31.75h.27v67.1h-13.49v-37.18l-3.49,3.03c-4.87,5.32-9.82,10.64-14.78,15.88-4.96-5.23-9.82-10.55-14.78-15.88h0Z"/><path class="cls-1" d="M563.11,505.94h.55l32.12,67.1h-14.78l-5.32-11.66h-24.69l-5.14,11.66h-14.78l32.03-67.1h.01ZM571.46,551.47c-3.03-6.88-5.97-13.85-7.99-19.64-1.93,4.59-5.41,13.4-8.17,19.64h16.16Z"/><path class="cls-1" d="M643.06,538.89l-3.49-3.03v37.18h-13.49v-67.1h.27l31.48,31.75,31.48-31.75h.27v67.1h-13.49v-37.18l-3.49,3.03c-4.87,5.32-9.82,10.64-14.78,15.88-4.96-5.23-9.82-10.55-14.78-15.88h0Z"/><path class="cls-1" d="M737.96,505.66c19.92,0,34.6,15.23,34.6,34.33s-14.6,34.33-34.6,34.33-34.6-15.05-34.6-34.33,14.6-34.33,34.6-34.33ZM737.96,561.38c11.93,0,20.37-9.55,20.37-21.39s-8.44-21.39-20.37-21.39-20.37,9.64-20.37,21.39,8.44,21.39,20.37,21.39Z"/><path class="cls-1" d="M840.77,549c0,15.41-10.19,25.33-27.63,25.33s-27.63-9.91-27.63-25.33v-42.03h14.13v40.66c0,8.62,4.87,13.76,13.49,13.76s13.49-5.14,13.49-13.76v-40.66h14.13v42.03h.03Z"/><path class="cls-1" d="M854.82,570.56v-13.58c4.59,2.38,10.64,4.41,16.61,4.77,2.11.09,4.12,0,5.88-.36,5.05-.73,7.99-2.67,7.99-5.88,0-4.41-3.94-6.7-13.03-10-11.56-4.23-18.35-9.08-18.35-20.55s9.73-19.28,23.96-19.28c6.61,0,13.13,1.47,17.26,3.3v13.03c-3.85-2.29-10.09-4.03-16.16-4.03-6.79,0-11.2,2.67-11.2,6.88,0,3.85,3.58,6.52,12.58,9.91,11.56,4.5,18.72,9.37,18.72,20.46,0,11.93-8.99,19.1-24.6,19.1-7.53,0-14.87-1.65-19.64-3.76h-.01Z"/><path class="cls-1" d="M909.35,570.56v-13.58c4.59,2.38,10.64,4.41,16.61,4.77,2.11.09,4.12,0,5.88-.36,5.05-.73,7.99-2.67,7.99-5.88,0-4.41-3.94-6.7-13.03-10-11.56-4.23-18.35-9.08-18.35-20.55s9.73-19.28,23.96-19.28c6.61,0,13.13,1.47,17.26,3.3v13.03c-3.85-2.29-10.09-4.03-16.16-4.03-6.79,0-11.2,2.67-11.2,6.88,0,3.85,3.58,6.52,12.58,9.91,11.56,4.5,18.72,9.37,18.72,20.46,0,11.93-8.99,19.1-24.6,19.1-7.53,0-14.87-1.65-19.64-3.76h-.01Z"/><path class="cls-1" d="M991.31,505.94h.55l32.12,67.1h-14.78l-5.32-11.66h-24.69l-5.14,11.66h-14.78l32.03-67.1h.01ZM999.66,551.47c-3.03-6.88-5.97-13.85-7.99-19.64-1.93,4.59-5.41,13.4-8.17,19.64h16.16Z"/><path class="cls-1" d="M139.64,456.39c-46.1,0-83.62,37.5-83.62,83.6s37.5,83.62,83.62,83.62,83.62-37.5,83.62-83.62-37.52-83.6-83.62-83.6ZM96.7,594.06l10.37-64.6,8.83,11.19,23.74,27.4,23.74-27.4,8.83-11.19,10.37,64.6c-11.8,9.39-26.72,15.01-42.94,15.01s-31.14-5.62-42.94-15.01h0ZM195.86,580.07l-13.27-80.18h-.26l-42.69,47.41-42.69-47.41h-.26l-13.27,80.18c-8.08-11.3-12.85-25.14-12.85-40.08,0-38.09,30.99-69.07,69.07-69.07s69.07,30.99,69.07,69.07c0,14.93-4.76,28.76-12.85,40.08Z"/></svg>