<?xml version="1.0" encoding="UTF-8"?><svg id="Layer_1" xmlns="http://www.w3.org/2000/svg" viewBox="0 0 1080 1080"><defs><style>.cls-1{fill:#fff;}</style></defs><path class="cls-1" d="M687.67,354.47v-4.02h-59.17c-27.8,0-48.6,6.02-63.73,15.6-12.41-6.4-28.28-10.02-47.91-10.02h-20.18c-9.54-3.63-21.46-5.58-35.84-5.58h-68.51v4.02c8.72,2.56,12.46,8.77,12.46,42.41v163.04c0,33.64-3.74,39.85-12.46,42.41v4.02h59.17c28.18,0,49.17-6.19,64.35-16,12.29,6.15,27.92,9.63,47.15,9.63h18.34c9.85,4.14,22.42,6.37,37.81,6.37h68.51v-4.02c-8.72-2.56-12.46-8.77-12.46-42.41v-163.04c0-33.64,3.74-39.85,12.46-42.41h0ZM520.29,465.47c4.06-3.4,8.64-6.17,13.69-8.31,4.17,13.55,12.19,25.41,25.11,33.76-3.96,3.23-8.42,5.89-13.31,7.96-4.31-13.45-12.46-25.19-25.49-33.42h0ZM518.68,574.77c-12.9-12.88-19.5-31.59-19.5-55.18,0-18.82,4.41-33.72,12.36-44.72,13,12.74,18.75,31.86,18.75,53.98,0,17.99-3.36,33.74-11.61,45.92h0ZM568.04,481.52c-12.7-12.74-18.33-31.69-18.33-53.57,0-18.17,3.44-34.07,11.87-46.3,12.63,12.86,19.09,31.43,19.09,54.77,0,19.03-4.51,34.06-12.64,45.09h0ZM553.48,374.78c-16.91,15.91-23.4,37.47-23.08,57.93.05,6.17.67,12.24,1.92,18.06-7.88,2.34-15.01,5.63-21.29,9.84-8.45-3.66-18.48-6.12-30.25-7.06,31.45-7.31,45.47-29.97,45.47-54.84,0-16.2-6.24-29.12-19.19-37.49,19.13.6,34.65,5.27,46.42,13.57h0ZM454.31,601.24h-15.88c-13.39,0-16.2-5.48-16.2-31.81v-99.9h.05v-19.32h-.05v-95.01h35.5c32.7,0,49.21,19.38,49.21,48.26,0,23.75-10.71,43.47-38.5,48.71,0,2.08.05,4.15-.05,6.22,13.75.54,24.95,3.82,33.86,9.25-14.34,13.6-22.36,33.56-22.36,59.26s8.97,46.04,28.49,59.12c-11.95,9.68-29.44,15.22-54.07,15.22h0ZM526.95,581.63c16.6-15.87,22.98-37.25,22.66-57.54-.06-6.46-.73-12.78-2.1-18.84,7.62-2.26,14.54-5.41,20.66-9.42,8.62,3.86,18.9,6.45,31.05,7.43-31.45,7.31-45.47,29.97-45.47,54.84,0,15.68,5.85,28.28,17.96,36.66-18.33-.72-33.29-5.24-44.77-13.13h0ZM657.77,487.27h-.05v19.32h.05v95.01h-35.5c-32.7,0-49.21-19.38-49.21-48.26,0-23.75,10.71-43.47,38.5-48.71,0-2.08-.05-4.15.05-6.22-14.06-.56-25.45-3.96-34.45-9.62,14.62-13.61,22.8-33.72,22.8-59.68,0-24.58-8.79-45.6-27.88-58.7,11.93-9.45,29.29-14.85,53.6-14.85h15.88c13.39,0,16.2,5.48,16.2,31.81v99.9h0Z"/><path class="cls-1" d="M393.83,685.1v-1.23c2.89-.96,3.5-3.59,3.5-9.9v-39.06c0-6.31-.61-8.93-3.5-9.9v-1.23h21.63c14.36,0,19.62,4.47,19.62,11.56,0,5.95-3.76,11.38-14.8,13.31,14.45.44,21.81,7.1,21.9,15.85.17,10.25-7.79,20.58-29.34,20.58h-19.01ZM424.66,637.36c0-7.71-5.52-12.17-14.45-12.17h-3.59v23.21h7.79c6.4,0,10.25-4.9,10.25-11.04h0ZM431.76,667.75c0-10.51-5.87-17.95-18.92-17.95h-6.22v26.28c0,6.31.79,7.62,4.55,7.62h2.45c12.61,0,18.13-6.66,18.13-15.94h0Z"/><path class="cls-1" d="M480.97,670.73c-5.26-12.79-5.69-17.08-13.4-17.08h-5.17v20.32c0,6.31.62,8.93,3.5,9.9v1.23h-16.29v-1.23c2.89-.96,3.5-3.59,3.5-9.9v-39.06c0-6.31-.61-8.93-3.5-9.9v-1.23h18.39c19.09,0,23.04,6.92,23.04,14.02,0,8.06-5.52,14.1-17.16,15.5,9.9,1.14,11.83,5.26,16.47,16.9s5.6,13.75,8.85,13.75c.44,0,.88,0,1.31-.09v1.23c-2.02.52-4.81.61-6.31.61-7.27,0-9.02-4.73-13.23-14.97h0ZM481.76,639.9c0-7.09-4.55-14.71-15.5-14.71-1.23,0-2.54.09-3.86.26v26.8h5.6c9.98,0,13.75-5.6,13.75-12.35h0Z"/><path class="cls-1" d="M504.18,683.86c2.89-.96,3.5-3.59,3.5-9.9v-39.06c0-6.31-.61-8.93-3.5-9.9v-1.23h16.29v1.23c-2.89.96-3.5,3.59-3.5,9.9v39.06c0,6.31.62,8.93,3.5,9.9v1.23h-16.29v-1.23Z"/><path class="cls-1" d="M541.5,683.86c2.89-.96,3.5-3.59,3.5-9.9v-48.61h-2.71c-7.79,0-11.73,2.19-14.97,9.19l-1.05-.17.52-10.6h45.63l.52,10.6-1.05.17c-3.24-7-7.19-9.19-14.98-9.19h-2.54v48.61c0,6.31.62,8.93,3.5,9.9v1.23h-16.38v-1.23h0Z"/><path class="cls-1" d="M575.74,654.18c0-17.34,12.79-31.09,31.35-31.09,14.8,0,31.27,10.16,31.27,31.62s-16.55,31.27-31.27,31.27-31.35-9.81-31.35-31.79h0ZM629.51,661.62c-1.31-18.66-11.83-36.26-26.97-36.26-11.91,0-18.66,9.28-17.69,23.47,1.23,17.52,12.35,34.42,27.23,34.42,13.4,0,18.21-10.07,17.43-21.64h0Z"/><path class="cls-1" d="M644.93,679.75l-.35-13.14,1.14-.17c3.68,9.98,11.47,17.69,23.12,17.69,6.05,0,11.65-3.86,11.65-11.04,0-8.58-11.3-12.61-18.31-15.42-9.02-3.76-16.55-6.74-16.55-16.9,0-10.86,8.76-17.6,22.51-17.6,6.48,0,12.26,1.4,16.81,3.68l.35,11.38-.96.35c-3.59-9.02-11.04-13.93-19.53-13.93-7,0-12.52,4.12-12.52,11.04,0,7.79,8.85,10.95,15.85,13.75,8.93,3.42,19.53,7.36,19.53,17.87,0,12-11.04,18.66-21.11,18.66-9.02,0-17.16-2.89-21.64-6.22h0Z"/><path class="cls-1" d="M392.33,712.57c0-9.86,7.81-18,19.76-18,3.61,0,8.64.68,11.17,2.39l.19,6.44-.58.15c-2-5.02-7.02-8.05-12.05-8.05-7.81,0-13.32,5.17-13.32,14.88s5.56,18.15,15.07,18.15c5.46,0,9.22-3.32,10.98-8.39l.64.1-.78,6.98c-2.58,1.17-6.29,2.34-12.25,2.34-11.66,0-18.83-6.05-18.83-16.98h0Z"/><path class="cls-1" d="M429.22,711.83c0-9.66,7.13-17.32,17.46-17.32,8.24,0,17.42,5.66,17.42,17.61s-9.22,17.42-17.42,17.42-17.46-5.46-17.46-17.71ZM459.17,715.99c-.73-10.39-6.59-20.2-15.03-20.2-6.64,0-10.39,5.17-9.86,13.07.68,9.76,6.88,19.17,15.17,19.17,7.47,0,10.15-5.61,9.71-12.05h0Z"/><path class="cls-1" d="M469.12,729.06v-.68c1.61-.54,1.95-2,1.95-5.51v-21.76c0-3.52-.34-4.98-1.95-5.51v-.68h9.07v.68c-1.61.54-1.95,2-1.95,5.51v24.64c0,1.56.88,2.44,2.44,2.44h4c4.93,0,7.47-1.17,9.42-5.36l.64.1-.39,6.15h-23.23Z"/><path class="cls-1" d="M496.15,729.06v-.68c1.61-.54,1.95-2,1.95-5.51v-21.76c0-3.52-.34-4.98-1.95-5.51v-.68h9.07v.68c-1.61.54-1.95,2-1.95,5.51v24.64c0,1.56.88,2.44,2.44,2.44h4c4.93,0,7.47-1.17,9.42-5.36l.64.1-.39,6.15h-23.23Z"/><path class="cls-1" d="M523.17,729.06v-.68c1.61-.54,1.95-2,1.95-5.51v-21.76c0-3.52-.34-4.98-1.95-5.51v-.68h23.42l.54,6.88-.64.15c-1.95-4.78-5.02-6.25-10.49-6.25h-5.71v14.64h4.68c5.95,0,7.66-1.17,8.44-3.71h.68v8.2h-.68c-.78-2.54-2.49-3.71-8.44-3.71h-4.68v14.73c0,1.56.88,2.44,2.44,2.44h4.68c4.93,0,8.3-1.47,10.15-6.44l.64.1-.34,7.13h-24.68Z"/><path class="cls-1" d="M552.79,712.57c0-9.86,7.81-18,19.76-18,3.61,0,8.64.68,11.17,2.39l.19,6.44-.58.15c-2-5.02-7.02-8.05-12.05-8.05-7.81,0-13.32,5.17-13.32,14.88s5.56,18.15,15.07,18.15c5.46,0,9.22-3.32,10.98-8.39l.64.1-.78,6.98c-2.58,1.17-6.29,2.34-12.25,2.34-11.66,0-18.83-6.05-18.83-16.98h0Z"/><path class="cls-1" d="M596.2,728.37c1.61-.54,1.95-2,1.95-5.51v-27.07h-1.51c-4.34,0-6.54,1.22-8.34,5.12l-.58-.1.29-5.91h25.42l.29,5.91-.58.1c-1.81-3.9-4-5.12-8.34-5.12h-1.41v27.07c0,3.52.34,4.98,1.95,5.51v.68h-9.12v-.68h0Z"/><path class="cls-1" d="M616.89,728.37c1.61-.54,1.95-2,1.95-5.51v-21.76c0-3.52-.34-4.98-1.95-5.51v-.68h9.07v.68c-1.61.54-1.95,2-1.95,5.51v21.76c0,3.52.34,4.98,1.95,5.51v.68h-9.07v-.68Z"/><path class="cls-1" d="M628.3,695.59v-.68h8.97v.68c-1.61.54-.98,1.81.29,5.08l8.98,22.78,8.83-22.78c1.27-3.27.92-4.68-.73-5.08v-.68h5.66v.68c-1.47.54-2.73,1.81-4,5.08l-11.02,28.39h-1.85l-11.46-28.39c-1.27-3.27-2.54-4.53-3.66-5.08h0Z"/><path class="cls-1" d="M662.64,729.06v-.68c1.61-.54,1.95-2,1.95-5.51v-21.76c0-3.52-.34-4.98-1.95-5.51v-.68h23.42l.54,6.88-.64.15c-1.95-4.78-5.02-6.25-10.49-6.25h-5.71v14.64h4.68c5.95,0,7.66-1.17,8.44-3.71h.68v8.2h-.68c-.78-2.54-2.49-3.71-8.44-3.71h-4.68v14.73c0,1.56.88,2.44,2.44,2.44h4.68c4.93,0,8.3-1.47,10.15-6.44l.64.1-.34,7.13h-24.68Z"/></svg>